<svg version="1.1" xmlns="http://www.w3.org/2000/svg" viewBox="0 0 647.7222222222222 510.9888916015624" width="647.7222222222222" height="510.9888916015624">
  <!-- svg-source:excalidraw -->
  
  <defs>
    <style>
      @font-face {
        font-family: "Virgil";
        src: url("https://excalidraw.com/Virgil.woff2");
      }
      @font-face {
        font-family: "Cascadia";
        src: url("https://excalidraw.com/Cascadia.woff2");
      }
    </style>
  </defs>
  <g stroke-linecap="round" transform="translate(213.81347161800136 361.35049717658023) rotate(0 84.5 36)"><path d="M0 0 L169 0 L169 72 L0 72" stroke="none" stroke-width="0" fill="#f7b0b6"></path><path d="M0 0 C47.8 0, 95.59 0, 169 0 M0 0 C64.36 0, 128.72 0, 169 0 M169 0 C169 26.53, 169 53.06, 169 72 M169 0 C169 16.74, 169 33.48, 169 72 M169 72 C133.36 72, 97.72 72, 0 72 M169 72 C116.14 72, 63.27 72, 0 72 M0 72 C0 54.08, 0 36.16, 0 0 M0 72 C0 48, 0 24, 0 0" stroke="#000000" stroke-width="1" fill="none"></path></g><g stroke-linecap="round" transform="translate(225.58765988675987 370.40807025691913) rotate(349.49460188942567 28.405699134348822 27.875079781540137)"><path d="M56.81 27.88 C56.81 29.49, 56.67 31.13, 56.38 32.72 C56.09 34.3, 55.66 35.89, 55.1 37.41 C54.54 38.93, 53.83 40.42, 53.01 41.81 C52.18 43.21, 51.22 44.56, 50.17 45.79 C49.11 47.03, 47.92 48.19, 46.66 49.23 C45.41 50.27, 44.03 51.21, 42.61 52.02 C41.18 52.82, 39.67 53.52, 38.12 54.07 C36.58 54.62, 34.96 55.05, 33.34 55.33 C31.72 55.61, 30.05 55.75, 28.41 55.75 C26.76 55.75, 25.09 55.61, 23.47 55.33 C21.85 55.05, 20.24 54.62, 18.69 54.07 C17.15 53.52, 15.63 52.82, 14.2 52.02 C12.78 51.21, 11.41 50.27, 10.15 49.23 C8.89 48.19, 7.7 47.03, 6.65 45.79 C5.59 44.56, 4.63 43.21, 3.81 41.81 C2.98 40.42, 2.28 38.93, 1.71 37.41 C1.15 35.89, 0.72 34.3, 0.43 32.72 C0.15 31.13, 0 29.49, 0 27.88 C0 26.26, 0.15 24.62, 0.43 23.03 C0.72 21.45, 1.15 19.86, 1.71 18.34 C2.28 16.83, 2.98 15.33, 3.81 13.94 C4.63 12.54, 5.59 11.19, 6.65 9.96 C7.7 8.72, 8.89 7.56, 10.15 6.52 C11.41 5.48, 12.78 4.54, 14.2 3.73 C15.63 2.93, 17.15 2.23, 18.69 1.68 C20.24 1.13, 21.85 0.7, 23.47 0.42 C25.09 0.14, 26.76 0, 28.41 0 C30.05 0, 31.72 0.14, 33.34 0.42 C34.96 0.7, 36.58 1.13, 38.12 1.68 C39.67 2.23, 41.18 2.93, 42.61 3.73 C44.03 4.54, 45.41 5.48, 46.66 6.52 C47.92 7.56, 49.11 8.72, 50.17 9.96 C51.22 11.19, 52.18 12.54, 53.01 13.94 C53.83 15.33, 54.54 16.83, 55.1 18.34 C55.66 19.86, 56.09 21.45, 56.38 23.03 C56.67 24.62, 56.74 27.07, 56.81 27.88 C56.88 28.68, 56.88 27.07, 56.81 27.88" stroke="none" stroke-width="0" fill="#bfc548"></path><path d="M56.81 27.88 C56.81 29.49, 56.67 31.13, 56.38 32.72 C56.09 34.3, 55.66 35.89, 55.1 37.41 C54.54 38.93, 53.83 40.42, 53.01 41.81 C52.18 43.21, 51.22 44.56, 50.17 45.79 C49.11 47.03, 47.92 48.19, 46.66 49.23 C45.41 50.27, 44.03 51.21, 42.61 52.02 C41.18 52.82, 39.67 53.52, 38.12 54.07 C36.58 54.62, 34.96 55.05, 33.34 55.33 C31.72 55.61, 30.05 55.75, 28.41 55.75 C26.76 55.75, 25.09 55.61, 23.47 55.33 C21.85 55.05, 20.24 54.62, 18.69 54.07 C17.15 53.52, 15.63 52.82, 14.2 52.02 C12.78 51.21, 11.41 50.27, 10.15 49.23 C8.89 48.19, 7.7 47.03, 6.65 45.79 C5.59 44.56, 4.63 43.21, 3.81 41.81 C2.98 40.42, 2.28 38.93, 1.71 37.41 C1.15 35.89, 0.72 34.3, 0.43 32.72 C0.15 31.13, 0 29.49, 0 27.88 C0 26.26, 0.15 24.62, 0.43 23.03 C0.72 21.45, 1.15 19.86, 1.71 18.34 C2.28 16.83, 2.98 15.33, 3.81 13.94 C4.63 12.54, 5.59 11.19, 6.65 9.96 C7.7 8.72, 8.89 7.56, 10.15 6.52 C11.41 5.48, 12.78 4.54, 14.2 3.73 C15.63 2.93, 17.15 2.23, 18.69 1.68 C20.24 1.13, 21.85 0.7, 23.47 0.42 C25.09 0.14, 26.76 0, 28.41 0 C30.05 0, 31.72 0.14, 33.34 0.42 C34.96 0.7, 36.58 1.13, 38.12 1.68 C39.67 2.23, 41.18 2.93, 42.61 3.73 C44.03 4.54, 45.41 5.48, 46.66 6.52 C47.92 7.56, 49.11 8.72, 50.17 9.96 C51.22 11.19, 52.18 12.54, 53.01 13.94 C53.83 15.33, 54.54 16.83, 55.1 18.34 C55.66 19.86, 56.09 21.45, 56.38 23.03 C56.67 24.62, 56.74 27.07, 56.81 27.88 C56.88 28.68, 56.88 27.07, 56.81 27.88" stroke="#bfc548" stroke-width="1" fill="none"></path></g><g stroke-linecap="round"><g transform="translate(235.78861523686192 413.5330758506092) rotate(349.49460188942567 22.661735869555798 -13.818463752284913)" fill-rule="evenodd"><path d="M0 0 L0.15 0.53 L-4.45 -6.5 L-4.78 -13.44 L-2.39 -18.3 L2.45 -22.24 L11.81 -24.68 L34.93 -21.55 L39.33 -22.16 L42.62 -23.55 L47.52 -27.41 L50.33 -32.73 L48.77 -19.96 L44.97 -11.55 L37.16 -3.55 L30.46 0.77 L23.07 4.18 L16.15 5.27 L9.79 4.87 L4.16 2.81 L-0.51 0.03 L0 0" stroke="none" stroke-width="0" fill="#ffffff" fill-rule="evenodd"></path><path d="M0 0 C-0.04 0.04, 0.51 1.31, -0.23 0.22 C-0.98 -0.86, -3.7 -4.22, -4.45 -6.5 C-5.21 -8.78, -5.13 -11.48, -4.78 -13.44 C-4.44 -15.41, -3.59 -16.83, -2.39 -18.3 C-1.18 -19.76, 0.08 -21.17, 2.45 -22.24 C4.81 -23.3, 8.7 -24.4, 11.81 -24.68 C14.92 -24.95, 17.24 -24.4, 21.1 -23.88 C24.95 -23.36, 31.35 -21.61, 34.93 -21.55 C38.52 -21.5, 40.52 -22.57, 42.62 -23.55 C44.71 -24.53, 46.23 -25.88, 47.52 -27.41 C48.8 -28.94, 50.12 -33.97, 50.33 -32.73 C50.54 -31.49, 49.66 -23.48, 48.77 -19.96 C47.87 -16.43, 46.9 -14.29, 44.97 -11.55 C43.03 -8.82, 40.81 -6.17, 37.16 -3.55 C33.51 -0.93, 27.63 2.77, 23.07 4.18 C18.51 5.58, 13.6 5.47, 9.79 4.87 C5.97 4.27, 1.81 1.4, 0.17 0.59 C-1.46 -0.23, 0.03 0.1, 0 0 M0 0 C-0.04 0.04, 0.51 1.31, -0.23 0.22 C-0.98 -0.86, -3.7 -4.22, -4.45 -6.5 C-5.21 -8.78, -5.13 -11.48, -4.78 -13.44 C-4.44 -15.41, -3.59 -16.83, -2.39 -18.3 C-1.18 -19.76, 0.08 -21.17, 2.45 -22.24 C4.81 -23.3, 8.7 -24.4, 11.81 -24.68 C14.92 -24.95, 17.24 -24.4, 21.1 -23.88 C24.95 -23.36, 31.35 -21.61, 34.93 -21.55 C38.52 -21.5, 40.52 -22.57, 42.62 -23.55 C44.71 -24.53, 46.23 -25.88, 47.52 -27.41 C48.8 -28.94, 50.12 -33.97, 50.33 -32.73 C50.54 -31.49, 49.66 -23.48, 48.77 -19.96 C47.87 -16.43, 46.9 -14.29, 44.97 -11.55 C43.03 -8.82, 40.81 -6.17, 37.16 -3.55 C33.51 -0.93, 27.63 2.77, 23.07 4.18 C18.51 5.58, 13.6 5.47, 9.79 4.87 C5.97 4.27, 1.81 1.4, 0.17 0.59 C-1.46 -0.23, 0.03 0.1, 0 0" stroke="#82c91e" stroke-width="1" fill="none"></path></g></g><g stroke-linecap="round"><g transform="translate(240.469464432927 411.35617109360385) rotate(349.49460188942567 14.967938169838533 -4.85749876928935)" fill-rule="evenodd"><path d="M0 0 L9.1 -0.7 L17.64 -2.41 L26.24 -5.48 L32.69 -9.55 L35.82 -13.47 L35.79 -12.31 L32.94 -7.95 L29.02 -3.92 L23.67 -0.51 L9.99 3.23 L3.36 3.67 L-2.93 3.43 L-5.27 1.83 L-6.07 0.24 L0 0" stroke="none" stroke-width="0" fill="#82c91e" fill-rule="evenodd"></path><path d="M0 0 C0.66 -0.06, 2.47 -0.21, 3.99 -0.33 C5.5 -0.45, 6.83 -0.36, 9.1 -0.7 C11.38 -1.05, 14.78 -1.61, 17.64 -2.41 C20.49 -3.2, 24.1 -4.52, 26.24 -5.48 C28.38 -6.45, 29.41 -7.53, 30.49 -8.21 C31.56 -8.89, 32.04 -8.98, 32.69 -9.55 C33.34 -10.12, 33.85 -10.96, 34.38 -11.61 C34.9 -12.26, 35.59 -13.35, 35.82 -13.47 C36.06 -13.59, 36.27 -13.23, 35.79 -12.31 C35.31 -11.39, 33.57 -8.83, 32.94 -7.95 C32.32 -7.07, 32.34 -7.36, 32.03 -7.04 C31.72 -6.72, 31.58 -6.55, 31.08 -6.03 C30.58 -5.51, 30.25 -4.84, 29.02 -3.92 C27.78 -3, 25.76 -1.48, 23.67 -0.51 C21.58 0.45, 18.74 1.25, 16.46 1.88 C14.18 2.5, 12.17 2.93, 9.99 3.23 C7.8 3.53, 5.51 3.64, 3.36 3.67 C1.21 3.7, -1.36 4, -2.93 3.43 C-4.5 2.85, -6.56 0.81, -6.07 0.24 C-5.58 -0.33, -1.01 0.04, 0 0 M0 0 C0.66 -0.06, 2.47 -0.21, 3.99 -0.33 C5.5 -0.45, 6.83 -0.36, 9.1 -0.7 C11.38 -1.05, 14.78 -1.61, 17.64 -2.41 C20.49 -3.2, 24.1 -4.52, 26.24 -5.48 C28.38 -6.45, 29.41 -7.53, 30.49 -8.21 C31.56 -8.89, 32.04 -8.98, 32.69 -9.55 C33.34 -10.12, 33.85 -10.96, 34.38 -11.61 C34.9 -12.26, 35.59 -13.35, 35.82 -13.47 C36.06 -13.59, 36.27 -13.23, 35.79 -12.31 C35.31 -11.39, 33.57 -8.83, 32.94 -7.95 C32.32 -7.07, 32.34 -7.36, 32.03 -7.04 C31.72 -6.72, 31.58 -6.55, 31.08 -6.03 C30.58 -5.51, 30.25 -4.84, 29.02 -3.92 C27.78 -3, 25.76 -1.48, 23.67 -0.51 C21.58 0.45, 18.74 1.25, 16.46 1.88 C14.18 2.5, 12.17 2.93, 9.99 3.23 C7.8 3.53, 5.51 3.64, 3.36 3.67 C1.21 3.7, -1.36 4, -2.93 3.43 C-4.5 2.85, -6.56 0.81, -6.07 0.24 C-5.58 -0.33, -1.01 0.04, 0 0" stroke="#82c91e" stroke-width="1" fill="none"></path></g></g><g stroke-linecap="round" transform="translate(232.72769036520253 414.9225374261463) rotate(349.49460188942567 2.114549177230117 2.040365225231028)"><path d="M4.23 2.04 C4.23 2.16, 4.22 2.28, 4.2 2.39 C4.18 2.51, 4.14 2.63, 4.1 2.74 C4.06 2.85, 4.01 2.96, 3.95 3.06 C3.88 3.16, 3.81 3.26, 3.73 3.35 C3.66 3.44, 3.57 3.53, 3.47 3.6 C3.38 3.68, 3.28 3.75, 3.17 3.81 C3.07 3.87, 2.95 3.92, 2.84 3.96 C2.72 4, 2.6 4.03, 2.48 4.05 C2.36 4.07, 2.24 4.08, 2.11 4.08 C1.99 4.08, 1.87 4.07, 1.75 4.05 C1.63 4.03, 1.51 4, 1.39 3.96 C1.28 3.92, 1.16 3.87, 1.06 3.81 C0.95 3.75, 0.85 3.68, 0.76 3.6 C0.66 3.53, 0.57 3.44, 0.49 3.35 C0.42 3.26, 0.34 3.16, 0.28 3.06 C0.22 2.96, 0.17 2.85, 0.13 2.74 C0.09 2.63, 0.05 2.51, 0.03 2.39 C0.01 2.28, 0 2.16, 0 2.04 C0 1.92, 0.01 1.8, 0.03 1.69 C0.05 1.57, 0.09 1.45, 0.13 1.34 C0.17 1.23, 0.22 1.12, 0.28 1.02 C0.34 0.92, 0.42 0.82, 0.49 0.73 C0.57 0.64, 0.66 0.55, 0.76 0.48 C0.85 0.4, 0.95 0.33, 1.06 0.27 C1.16 0.21, 1.28 0.16, 1.39 0.12 C1.51 0.08, 1.63 0.05, 1.75 0.03 C1.87 0.01, 1.99 0, 2.11 0 C2.24 0, 2.36 0.01, 2.48 0.03 C2.6 0.05, 2.72 0.08, 2.84 0.12 C2.95 0.16, 3.07 0.21, 3.17 0.27 C3.28 0.33, 3.38 0.4, 3.47 0.48 C3.57 0.55, 3.66 0.64, 3.73 0.73 C3.81 0.82, 3.88 0.92, 3.95 1.02 C4.01 1.12, 4.06 1.23, 4.1 1.34 C4.14 1.45, 4.18 1.57, 4.2 1.69 C4.22 1.8, 4.22 1.98, 4.23 2.04 C4.23 2.1, 4.23 1.98, 4.23 2.04" stroke="none" stroke-width="0" fill="#ffffff"></path><path d="M4.23 2.04 C4.23 2.16, 4.22 2.28, 4.2 2.39 C4.18 2.51, 4.14 2.63, 4.1 2.74 C4.06 2.85, 4.01 2.96, 3.95 3.06 C3.88 3.16, 3.81 3.26, 3.73 3.35 C3.66 3.44, 3.57 3.53, 3.47 3.6 C3.38 3.68, 3.28 3.75, 3.17 3.81 C3.07 3.87, 2.95 3.92, 2.84 3.96 C2.72 4, 2.6 4.03, 2.48 4.05 C2.36 4.07, 2.24 4.08, 2.11 4.08 C1.99 4.08, 1.87 4.07, 1.75 4.05 C1.63 4.03, 1.51 4, 1.39 3.96 C1.28 3.92, 1.16 3.87, 1.06 3.81 C0.95 3.75, 0.85 3.68, 0.76 3.6 C0.66 3.53, 0.57 3.44, 0.49 3.35 C0.42 3.26, 0.34 3.16, 0.28 3.06 C0.22 2.96, 0.17 2.85, 0.13 2.74 C0.09 2.63, 0.05 2.51, 0.03 2.39 C0.01 2.28, 0 2.16, 0 2.04 C0 1.92, 0.01 1.8, 0.03 1.69 C0.05 1.57, 0.09 1.45, 0.13 1.34 C0.17 1.23, 0.22 1.12, 0.28 1.02 C0.34 0.92, 0.42 0.82, 0.49 0.73 C0.57 0.64, 0.66 0.55, 0.76 0.48 C0.85 0.4, 0.95 0.33, 1.06 0.27 C1.16 0.21, 1.28 0.16, 1.39 0.12 C1.51 0.08, 1.63 0.05, 1.75 0.03 C1.87 0.01, 1.99 0, 2.11 0 C2.24 0, 2.36 0.01, 2.48 0.03 C2.6 0.05, 2.72 0.08, 2.84 0.12 C2.95 0.16, 3.07 0.21, 3.17 0.27 C3.28 0.33, 3.38 0.4, 3.47 0.48 C3.57 0.55, 3.66 0.64, 3.73 0.73 C3.81 0.82, 3.88 0.92, 3.95 1.02 C4.01 1.12, 4.06 1.23, 4.1 1.34 C4.14 1.45, 4.18 1.57, 4.2 1.69 C4.22 1.8, 4.22 1.98, 4.23 2.04 C4.23 2.1, 4.23 1.98, 4.23 2.04" stroke="#82c91e" stroke-width="1" fill="none"></path></g><g transform="translate(286.81347161800136 385.85049717658023) rotate(0 45.5 11.5)"><text x="91" y="19" font-family="Helvetica, Segoe UI Emoji" font-size="20px" fill="#000000" text-anchor="end" style="white-space: pre;" direction="ltr">ms-loader</text></g><g stroke-linecap="round" transform="translate(206 10) rotate(0 111 36)"><path d="M0 0 L222 0 L222 72 L0 72" stroke="none" stroke-width="0" fill="#b1c9eb"></path><path d="M0 0 C45.74 0, 91.49 0, 222 0 M0 0 C48.58 0, 97.17 0, 222 0 M222 0 C222 22.48, 222 44.96, 222 72 M222 0 C222 22.07, 222 44.15, 222 72 M222 72 C170.4 72, 118.8 72, 0 72 M222 72 C139.56 72, 57.12 72, 0 72 M0 72 C0 48.84, 0 25.67, 0 0 M0 72 C0 45.75, 0 19.5, 0 0" stroke="#000000" stroke-width="1" fill="none"></path></g><g stroke-linecap="round" transform="translate(217.7741882687585 19.057573080338898) rotate(349.49460188942567 28.405699134348822 27.875079781540137)"><path d="M56.81 27.88 C56.81 29.49, 56.67 31.13, 56.38 32.72 C56.09 34.3, 55.66 35.89, 55.1 37.41 C54.54 38.93, 53.83 40.42, 53.01 41.81 C52.18 43.21, 51.22 44.56, 50.17 45.79 C49.11 47.03, 47.92 48.19, 46.66 49.23 C45.41 50.27, 44.03 51.21, 42.61 52.02 C41.18 52.82, 39.67 53.52, 38.12 54.07 C36.58 54.62, 34.96 55.05, 33.34 55.33 C31.72 55.61, 30.05 55.75, 28.41 55.75 C26.76 55.75, 25.09 55.61, 23.47 55.33 C21.85 55.05, 20.24 54.62, 18.69 54.07 C17.15 53.52, 15.63 52.82, 14.2 52.02 C12.78 51.21, 11.41 50.27, 10.15 49.23 C8.89 48.19, 7.7 47.03, 6.65 45.79 C5.59 44.56, 4.63 43.21, 3.81 41.81 C2.98 40.42, 2.28 38.93, 1.71 37.41 C1.15 35.89, 0.72 34.3, 0.43 32.72 C0.15 31.13, 0 29.49, 0 27.88 C0 26.26, 0.15 24.62, 0.43 23.03 C0.72 21.45, 1.15 19.86, 1.71 18.34 C2.28 16.83, 2.98 15.33, 3.81 13.94 C4.63 12.54, 5.59 11.19, 6.65 9.96 C7.7 8.72, 8.89 7.56, 10.15 6.52 C11.41 5.48, 12.78 4.54, 14.2 3.73 C15.63 2.93, 17.15 2.23, 18.69 1.68 C20.24 1.13, 21.85 0.7, 23.47 0.42 C25.09 0.14, 26.76 0, 28.41 0 C30.05 0, 31.72 0.14, 33.34 0.42 C34.96 0.7, 36.58 1.13, 38.12 1.68 C39.67 2.23, 41.18 2.93, 42.61 3.73 C44.03 4.54, 45.41 5.48, 46.66 6.52 C47.92 7.56, 49.11 8.72, 50.17 9.96 C51.22 11.19, 52.18 12.54, 53.01 13.94 C53.83 15.33, 54.54 16.83, 55.1 18.34 C55.66 19.86, 56.09 21.45, 56.38 23.03 C56.67 24.62, 56.74 27.07, 56.81 27.88 C56.88 28.68, 56.88 27.07, 56.81 27.88" stroke="none" stroke-width="0" fill="#bfc548"></path><path d="M56.81 27.88 C56.81 29.49, 56.67 31.13, 56.38 32.72 C56.09 34.3, 55.66 35.89, 55.1 37.41 C54.54 38.93, 53.83 40.42, 53.01 41.81 C52.18 43.21, 51.22 44.56, 50.17 45.79 C49.11 47.03, 47.92 48.19, 46.66 49.23 C45.41 50.27, 44.03 51.21, 42.61 52.02 C41.18 52.82, 39.67 53.52, 38.12 54.07 C36.58 54.62, 34.96 55.05, 33.34 55.33 C31.72 55.61, 30.05 55.75, 28.41 55.75 C26.76 55.75, 25.09 55.61, 23.47 55.33 C21.85 55.05, 20.24 54.62, 18.69 54.07 C17.15 53.52, 15.63 52.82, 14.2 52.02 C12.78 51.21, 11.41 50.27, 10.15 49.23 C8.89 48.19, 7.7 47.03, 6.65 45.79 C5.59 44.56, 4.63 43.21, 3.81 41.81 C2.98 40.42, 2.28 38.93, 1.71 37.41 C1.15 35.89, 0.72 34.3, 0.43 32.72 C0.15 31.13, 0 29.49, 0 27.88 C0 26.26, 0.15 24.62, 0.43 23.03 C0.72 21.45, 1.15 19.86, 1.71 18.34 C2.28 16.83, 2.98 15.33, 3.81 13.94 C4.63 12.54, 5.59 11.19, 6.65 9.96 C7.7 8.72, 8.89 7.56, 10.15 6.52 C11.41 5.48, 12.78 4.54, 14.2 3.73 C15.63 2.93, 17.15 2.23, 18.69 1.68 C20.24 1.13, 21.85 0.7, 23.47 0.42 C25.09 0.14, 26.76 0, 28.41 0 C30.05 0, 31.72 0.14, 33.34 0.42 C34.96 0.7, 36.58 1.13, 38.12 1.68 C39.67 2.23, 41.18 2.93, 42.61 3.73 C44.03 4.54, 45.41 5.48, 46.66 6.52 C47.92 7.56, 49.11 8.72, 50.17 9.96 C51.22 11.19, 52.18 12.54, 53.01 13.94 C53.83 15.33, 54.54 16.83, 55.1 18.34 C55.66 19.86, 56.09 21.45, 56.38 23.03 C56.67 24.62, 56.74 27.07, 56.81 27.88 C56.88 28.68, 56.88 27.07, 56.81 27.88" stroke="#bfc548" stroke-width="1" fill="none"></path></g><g stroke-linecap="round"><g transform="translate(227.97514361886056 62.18257867402883) rotate(349.49460188942567 22.661735869555798 -13.818463752284927)" fill-rule="evenodd"><path d="M0 0 L0.15 0.53 L-4.45 -6.5 L-4.78 -13.44 L-2.39 -18.3 L2.45 -22.24 L11.81 -24.68 L34.93 -21.55 L39.33 -22.16 L42.62 -23.55 L47.52 -27.41 L50.33 -32.73 L48.77 -19.96 L44.97 -11.55 L37.16 -3.55 L30.46 0.77 L23.07 4.18 L16.15 5.27 L9.79 4.87 L4.16 2.81 L-0.51 0.03 L0 0" stroke="none" stroke-width="0" fill="#ffffff" fill-rule="evenodd"></path><path d="M0 0 C-0.04 0.04, 0.51 1.31, -0.23 0.22 C-0.98 -0.86, -3.7 -4.22, -4.45 -6.5 C-5.21 -8.78, -5.13 -11.48, -4.78 -13.44 C-4.44 -15.41, -3.59 -16.83, -2.39 -18.3 C-1.18 -19.76, 0.08 -21.17, 2.45 -22.24 C4.81 -23.3, 8.7 -24.4, 11.81 -24.68 C14.92 -24.95, 17.24 -24.4, 21.1 -23.88 C24.95 -23.36, 31.35 -21.61, 34.93 -21.55 C38.52 -21.5, 40.52 -22.57, 42.62 -23.55 C44.71 -24.53, 46.23 -25.88, 47.52 -27.41 C48.8 -28.94, 50.12 -33.97, 50.33 -32.73 C50.54 -31.49, 49.66 -23.48, 48.77 -19.96 C47.87 -16.43, 46.9 -14.29, 44.97 -11.55 C43.03 -8.82, 40.81 -6.17, 37.16 -3.55 C33.51 -0.93, 27.63 2.77, 23.07 4.18 C18.51 5.58, 13.6 5.47, 9.79 4.87 C5.97 4.27, 1.81 1.4, 0.17 0.59 C-1.46 -0.23, 0.03 0.1, 0 0 M0 0 C-0.04 0.04, 0.51 1.31, -0.23 0.22 C-0.98 -0.86, -3.7 -4.22, -4.45 -6.5 C-5.21 -8.78, -5.13 -11.48, -4.78 -13.44 C-4.44 -15.41, -3.59 -16.83, -2.39 -18.3 C-1.18 -19.76, 0.08 -21.17, 2.45 -22.24 C4.81 -23.3, 8.7 -24.4, 11.81 -24.68 C14.92 -24.95, 17.24 -24.4, 21.1 -23.88 C24.95 -23.36, 31.35 -21.61, 34.93 -21.55 C38.52 -21.5, 40.52 -22.57, 42.62 -23.55 C44.71 -24.53, 46.23 -25.88, 47.52 -27.41 C48.8 -28.94, 50.12 -33.97, 50.33 -32.73 C50.54 -31.49, 49.66 -23.48, 48.77 -19.96 C47.87 -16.43, 46.9 -14.29, 44.97 -11.55 C43.03 -8.82, 40.81 -6.17, 37.16 -3.55 C33.51 -0.93, 27.63 2.77, 23.07 4.18 C18.51 5.58, 13.6 5.47, 9.79 4.87 C5.97 4.27, 1.81 1.4, 0.17 0.59 C-1.46 -0.23, 0.03 0.1, 0 0" stroke="#82c91e" stroke-width="1" fill="none"></path></g></g><g stroke-linecap="round"><g transform="translate(232.65599281492564 60.0056739170235) rotate(349.49460188942567 14.967938169838533 -4.857498769289364)" fill-rule="evenodd"><path d="M0 0 L9.1 -0.7 L17.64 -2.41 L26.24 -5.48 L32.69 -9.55 L35.82 -13.47 L35.79 -12.31 L32.94 -7.95 L29.02 -3.92 L23.67 -0.51 L9.99 3.23 L3.36 3.67 L-2.93 3.43 L-5.27 1.83 L-6.07 0.24 L0 0" stroke="none" stroke-width="0" fill="#82c91e" fill-rule="evenodd"></path><path d="M0 0 C0.66 -0.06, 2.47 -0.21, 3.99 -0.33 C5.5 -0.45, 6.83 -0.36, 9.1 -0.7 C11.38 -1.05, 14.78 -1.61, 17.64 -2.41 C20.49 -3.2, 24.1 -4.52, 26.24 -5.48 C28.38 -6.45, 29.41 -7.53, 30.49 -8.21 C31.56 -8.89, 32.04 -8.98, 32.69 -9.55 C33.34 -10.12, 33.85 -10.96, 34.38 -11.61 C34.9 -12.26, 35.59 -13.35, 35.82 -13.47 C36.06 -13.59, 36.27 -13.23, 35.79 -12.31 C35.31 -11.39, 33.57 -8.83, 32.94 -7.95 C32.32 -7.07, 32.34 -7.36, 32.03 -7.04 C31.72 -6.72, 31.58 -6.55, 31.08 -6.03 C30.58 -5.51, 30.25 -4.84, 29.02 -3.92 C27.78 -3, 25.76 -1.48, 23.67 -0.51 C21.58 0.45, 18.74 1.25, 16.46 1.88 C14.18 2.5, 12.17 2.93, 9.99 3.23 C7.8 3.53, 5.51 3.64, 3.36 3.67 C1.21 3.7, -1.36 4, -2.93 3.43 C-4.5 2.85, -6.56 0.81, -6.07 0.24 C-5.58 -0.33, -1.01 0.04, 0 0 M0 0 C0.66 -0.06, 2.47 -0.21, 3.99 -0.33 C5.5 -0.45, 6.83 -0.36, 9.1 -0.7 C11.38 -1.05, 14.78 -1.61, 17.64 -2.41 C20.49 -3.2, 24.1 -4.52, 26.24 -5.48 C28.38 -6.45, 29.41 -7.53, 30.49 -8.21 C31.56 -8.89, 32.04 -8.98, 32.69 -9.55 C33.34 -10.12, 33.85 -10.96, 34.38 -11.61 C34.9 -12.26, 35.59 -13.35, 35.82 -13.47 C36.06 -13.59, 36.27 -13.23, 35.79 -12.31 C35.31 -11.39, 33.57 -8.83, 32.94 -7.95 C32.32 -7.07, 32.34 -7.36, 32.03 -7.04 C31.72 -6.72, 31.58 -6.55, 31.08 -6.03 C30.58 -5.51, 30.25 -4.84, 29.02 -3.92 C27.78 -3, 25.76 -1.48, 23.67 -0.51 C21.58 0.45, 18.74 1.25, 16.46 1.88 C14.18 2.5, 12.17 2.93, 9.99 3.23 C7.8 3.53, 5.51 3.64, 3.36 3.67 C1.21 3.7, -1.36 4, -2.93 3.43 C-4.5 2.85, -6.56 0.81, -6.07 0.24 C-5.58 -0.33, -1.01 0.04, 0 0" stroke="#82c91e" stroke-width="1" fill="none"></path></g></g><g stroke-linecap="round" transform="translate(224.91421874720118 63.57204024956616) rotate(349.49460188942567 2.114549177230117 2.0403652252309996)"><path d="M4.23 2.04 C4.23 2.16, 4.22 2.28, 4.2 2.39 C4.18 2.51, 4.14 2.63, 4.1 2.74 C4.06 2.85, 4.01 2.96, 3.95 3.06 C3.88 3.16, 3.81 3.26, 3.73 3.35 C3.66 3.44, 3.57 3.53, 3.47 3.6 C3.38 3.68, 3.28 3.75, 3.17 3.81 C3.07 3.87, 2.95 3.92, 2.84 3.96 C2.72 4, 2.6 4.03, 2.48 4.05 C2.36 4.07, 2.24 4.08, 2.11 4.08 C1.99 4.08, 1.87 4.07, 1.75 4.05 C1.63 4.03, 1.51 4, 1.39 3.96 C1.28 3.92, 1.16 3.87, 1.06 3.81 C0.95 3.75, 0.85 3.68, 0.76 3.6 C0.66 3.53, 0.57 3.44, 0.49 3.35 C0.42 3.26, 0.34 3.16, 0.28 3.06 C0.22 2.96, 0.17 2.85, 0.13 2.74 C0.09 2.63, 0.05 2.51, 0.03 2.39 C0.01 2.28, 0 2.16, 0 2.04 C0 1.92, 0.01 1.8, 0.03 1.69 C0.05 1.57, 0.09 1.45, 0.13 1.34 C0.17 1.23, 0.22 1.12, 0.28 1.02 C0.34 0.92, 0.42 0.82, 0.49 0.73 C0.57 0.64, 0.66 0.55, 0.76 0.48 C0.85 0.4, 0.95 0.33, 1.06 0.27 C1.16 0.21, 1.28 0.16, 1.39 0.12 C1.51 0.08, 1.63 0.05, 1.75 0.03 C1.87 0.01, 1.99 0, 2.11 0 C2.24 0, 2.36 0.01, 2.48 0.03 C2.6 0.05, 2.72 0.08, 2.84 0.12 C2.95 0.16, 3.07 0.21, 3.17 0.27 C3.28 0.33, 3.38 0.4, 3.47 0.48 C3.57 0.55, 3.66 0.64, 3.73 0.73 C3.81 0.82, 3.88 0.92, 3.95 1.02 C4.01 1.12, 4.06 1.23, 4.1 1.34 C4.14 1.45, 4.18 1.57, 4.2 1.69 C4.22 1.8, 4.22 1.98, 4.23 2.04 C4.23 2.1, 4.23 1.98, 4.23 2.04" stroke="none" stroke-width="0" fill="#ffffff"></path><path d="M4.23 2.04 C4.23 2.16, 4.22 2.28, 4.2 2.39 C4.18 2.51, 4.14 2.63, 4.1 2.74 C4.06 2.85, 4.01 2.96, 3.95 3.06 C3.88 3.16, 3.81 3.26, 3.73 3.35 C3.66 3.44, 3.57 3.53, 3.47 3.6 C3.38 3.68, 3.28 3.75, 3.17 3.81 C3.07 3.87, 2.95 3.92, 2.84 3.96 C2.72 4, 2.6 4.03, 2.48 4.05 C2.36 4.07, 2.24 4.08, 2.11 4.08 C1.99 4.08, 1.87 4.07, 1.75 4.05 C1.63 4.03, 1.51 4, 1.39 3.96 C1.28 3.92, 1.16 3.87, 1.06 3.81 C0.95 3.75, 0.85 3.68, 0.76 3.6 C0.66 3.53, 0.57 3.44, 0.49 3.35 C0.42 3.26, 0.34 3.16, 0.28 3.06 C0.22 2.96, 0.17 2.85, 0.13 2.74 C0.09 2.63, 0.05 2.51, 0.03 2.39 C0.01 2.28, 0 2.16, 0 2.04 C0 1.92, 0.01 1.8, 0.03 1.69 C0.05 1.57, 0.09 1.45, 0.13 1.34 C0.17 1.23, 0.22 1.12, 0.28 1.02 C0.34 0.92, 0.42 0.82, 0.49 0.73 C0.57 0.64, 0.66 0.55, 0.76 0.48 C0.85 0.4, 0.95 0.33, 1.06 0.27 C1.16 0.21, 1.28 0.16, 1.39 0.12 C1.51 0.08, 1.63 0.05, 1.75 0.03 C1.87 0.01, 1.99 0, 2.11 0 C2.24 0, 2.36 0.01, 2.48 0.03 C2.6 0.05, 2.72 0.08, 2.84 0.12 C2.95 0.16, 3.07 0.21, 3.17 0.27 C3.28 0.33, 3.38 0.4, 3.47 0.48 C3.57 0.55, 3.66 0.64, 3.73 0.73 C3.81 0.82, 3.88 0.92, 3.95 1.02 C4.01 1.12, 4.06 1.23, 4.1 1.34 C4.14 1.45, 4.18 1.57, 4.2 1.69 C4.22 1.8, 4.22 1.98, 4.23 2.04 C4.23 2.1, 4.23 1.98, 4.23 2.04" stroke="#82c91e" stroke-width="1" fill="none"></path></g><g transform="translate(281 34.5) rotate(0 71 11.5)"><text x="142" y="19" font-family="Helvetica, Segoe UI Emoji" font-size="20px" fill="#000000" text-anchor="end" style="white-space: pre;" direction="ltr">ms-orchestrator</text></g><g stroke-linecap="round" transform="translate(10 184) rotate(0 132.5 43.5)"><path d="M0 0 L265 0 L265 87 L0 87" stroke="none" stroke-width="0" fill="#fffcc9"></path><path d="M0 0 C91.31 0, 182.62 0, 265 0 M0 0 C84.47 0, 168.94 0, 265 0 M265 0 C265 29.22, 265 58.44, 265 87 M265 0 C265 20.31, 265 40.61, 265 87 M265 87 C195.86 87, 126.72 87, 0 87 M265 87 C194.43 87, 123.86 87, 0 87 M0 87 C0 62.6, 0 38.21, 0 0 M0 87 C0 57.4, 0 27.8, 0 0" stroke="#000000" stroke-width="1" fill="none"></path></g><g stroke-linecap="round" transform="translate(17.774188268758508 200.0575730803389) rotate(349.49460188942567 28.405699134348822 27.875079781540137)"><path d="M56.81 27.88 C56.81 29.49, 56.67 31.13, 56.38 32.72 C56.09 34.3, 55.66 35.89, 55.1 37.41 C54.54 38.93, 53.83 40.42, 53.01 41.81 C52.18 43.21, 51.22 44.56, 50.17 45.79 C49.11 47.03, 47.92 48.19, 46.66 49.23 C45.41 50.27, 44.03 51.21, 42.61 52.02 C41.18 52.82, 39.67 53.52, 38.12 54.07 C36.58 54.62, 34.96 55.05, 33.34 55.33 C31.72 55.61, 30.05 55.75, 28.41 55.75 C26.76 55.75, 25.09 55.61, 23.47 55.33 C21.85 55.05, 20.24 54.62, 18.69 54.07 C17.15 53.52, 15.63 52.82, 14.2 52.02 C12.78 51.21, 11.41 50.27, 10.15 49.23 C8.89 48.19, 7.7 47.03, 6.65 45.79 C5.59 44.56, 4.63 43.21, 3.81 41.81 C2.98 40.42, 2.28 38.93, 1.71 37.41 C1.15 35.89, 0.72 34.3, 0.43 32.72 C0.15 31.13, 0 29.49, 0 27.88 C0 26.26, 0.15 24.62, 0.43 23.03 C0.72 21.45, 1.15 19.86, 1.71 18.34 C2.28 16.83, 2.98 15.33, 3.81 13.94 C4.63 12.54, 5.59 11.19, 6.65 9.96 C7.7 8.72, 8.89 7.56, 10.15 6.52 C11.41 5.48, 12.78 4.54, 14.2 3.73 C15.63 2.93, 17.15 2.23, 18.69 1.68 C20.24 1.13, 21.85 0.7, 23.47 0.42 C25.09 0.14, 26.76 0, 28.41 0 C30.05 0, 31.72 0.14, 33.34 0.42 C34.96 0.7, 36.58 1.13, 38.12 1.68 C39.67 2.23, 41.18 2.93, 42.61 3.73 C44.03 4.54, 45.41 5.48, 46.66 6.52 C47.92 7.56, 49.11 8.72, 50.17 9.96 C51.22 11.19, 52.18 12.54, 53.01 13.94 C53.83 15.33, 54.54 16.83, 55.1 18.34 C55.66 19.86, 56.09 21.45, 56.38 23.03 C56.67 24.62, 56.74 27.07, 56.81 27.88 C56.88 28.68, 56.88 27.07, 56.81 27.88" stroke="none" stroke-width="0" fill="#bfc548"></path><path d="M56.81 27.88 C56.81 29.49, 56.67 31.13, 56.38 32.72 C56.09 34.3, 55.66 35.89, 55.1 37.41 C54.54 38.93, 53.83 40.42, 53.01 41.81 C52.18 43.21, 51.22 44.56, 50.17 45.79 C49.11 47.03, 47.92 48.19, 46.66 49.23 C45.41 50.27, 44.03 51.21, 42.61 52.02 C41.18 52.82, 39.67 53.52, 38.12 54.07 C36.58 54.62, 34.96 55.05, 33.34 55.33 C31.72 55.61, 30.05 55.75, 28.41 55.75 C26.76 55.75, 25.09 55.61, 23.47 55.33 C21.85 55.05, 20.24 54.62, 18.69 54.07 C17.15 53.52, 15.63 52.82, 14.2 52.02 C12.78 51.21, 11.41 50.27, 10.15 49.23 C8.89 48.19, 7.7 47.03, 6.65 45.79 C5.59 44.56, 4.63 43.21, 3.81 41.81 C2.98 40.42, 2.28 38.93, 1.71 37.41 C1.15 35.89, 0.72 34.3, 0.43 32.72 C0.15 31.13, 0 29.49, 0 27.88 C0 26.26, 0.15 24.62, 0.43 23.03 C0.72 21.45, 1.15 19.86, 1.71 18.34 C2.28 16.83, 2.98 15.33, 3.81 13.94 C4.63 12.54, 5.59 11.19, 6.65 9.96 C7.7 8.72, 8.89 7.56, 10.15 6.52 C11.41 5.48, 12.78 4.54, 14.2 3.73 C15.63 2.93, 17.15 2.23, 18.69 1.68 C20.24 1.13, 21.85 0.7, 23.47 0.42 C25.09 0.14, 26.76 0, 28.41 0 C30.05 0, 31.72 0.14, 33.34 0.42 C34.96 0.7, 36.58 1.13, 38.12 1.68 C39.67 2.23, 41.18 2.93, 42.61 3.73 C44.03 4.54, 45.41 5.48, 46.66 6.52 C47.92 7.56, 49.11 8.72, 50.17 9.96 C51.22 11.19, 52.18 12.54, 53.01 13.94 C53.83 15.33, 54.54 16.83, 55.1 18.34 C55.66 19.86, 56.09 21.45, 56.38 23.03 C56.67 24.62, 56.74 27.07, 56.81 27.88 C56.88 28.68, 56.88 27.07, 56.81 27.88" stroke="#bfc548" stroke-width="1" fill="none"></path></g><g stroke-linecap="round"><g transform="translate(27.975143618860557 243.18257867402883) rotate(349.49460188942567 22.661735869555798 -13.818463752284941)" fill-rule="evenodd"><path d="M0 0 L0.15 0.53 L-4.45 -6.5 L-4.78 -13.44 L-2.39 -18.3 L2.45 -22.24 L11.81 -24.68 L34.93 -21.55 L39.33 -22.16 L42.62 -23.55 L47.52 -27.41 L50.33 -32.73 L48.77 -19.96 L44.97 -11.55 L37.16 -3.55 L30.46 0.77 L23.07 4.18 L16.15 5.27 L9.79 4.87 L4.16 2.81 L-0.51 0.03 L0 0" stroke="none" stroke-width="0" fill="#ffffff" fill-rule="evenodd"></path><path d="M0 0 C-0.04 0.04, 0.51 1.31, -0.23 0.22 C-0.98 -0.86, -3.7 -4.22, -4.45 -6.5 C-5.21 -8.78, -5.13 -11.48, -4.78 -13.44 C-4.44 -15.41, -3.59 -16.83, -2.39 -18.3 C-1.18 -19.76, 0.08 -21.17, 2.45 -22.24 C4.81 -23.3, 8.7 -24.4, 11.81 -24.68 C14.92 -24.95, 17.24 -24.4, 21.1 -23.88 C24.95 -23.36, 31.35 -21.61, 34.93 -21.55 C38.52 -21.5, 40.52 -22.57, 42.62 -23.55 C44.71 -24.53, 46.23 -25.88, 47.52 -27.41 C48.8 -28.94, 50.12 -33.97, 50.33 -32.73 C50.54 -31.49, 49.66 -23.48, 48.77 -19.96 C47.87 -16.43, 46.9 -14.29, 44.97 -11.55 C43.03 -8.82, 40.81 -6.17, 37.16 -3.55 C33.51 -0.93, 27.63 2.77, 23.07 4.18 C18.51 5.58, 13.6 5.47, 9.79 4.87 C5.97 4.27, 1.81 1.4, 0.17 0.59 C-1.46 -0.23, 0.03 0.1, 0 0 M0 0 C-0.04 0.04, 0.51 1.31, -0.23 0.22 C-0.98 -0.86, -3.7 -4.22, -4.45 -6.5 C-5.21 -8.78, -5.13 -11.48, -4.78 -13.44 C-4.44 -15.41, -3.59 -16.83, -2.39 -18.3 C-1.18 -19.76, 0.08 -21.17, 2.45 -22.24 C4.81 -23.3, 8.7 -24.4, 11.81 -24.68 C14.92 -24.95, 17.24 -24.4, 21.1 -23.88 C24.95 -23.36, 31.35 -21.61, 34.93 -21.55 C38.52 -21.5, 40.52 -22.57, 42.62 -23.55 C44.71 -24.53, 46.23 -25.88, 47.52 -27.41 C48.8 -28.94, 50.12 -33.97, 50.33 -32.73 C50.54 -31.49, 49.66 -23.48, 48.77 -19.96 C47.87 -16.43, 46.9 -14.29, 44.97 -11.55 C43.03 -8.82, 40.81 -6.17, 37.16 -3.55 C33.51 -0.93, 27.63 2.77, 23.07 4.18 C18.51 5.58, 13.6 5.47, 9.79 4.87 C5.97 4.27, 1.81 1.4, 0.17 0.59 C-1.46 -0.23, 0.03 0.1, 0 0" stroke="#82c91e" stroke-width="1" fill="none"></path></g></g><g stroke-linecap="round"><g transform="translate(32.65599281492564 241.0056739170235) rotate(349.49460188942567 14.967938169838476 -4.8574987692893785)" fill-rule="evenodd"><path d="M0 0 L9.1 -0.7 L17.64 -2.41 L26.24 -5.48 L32.69 -9.55 L35.82 -13.47 L35.79 -12.31 L32.94 -7.95 L29.02 -3.92 L23.67 -0.51 L9.99 3.23 L3.36 3.67 L-2.93 3.43 L-5.27 1.83 L-6.07 0.24 L0 0" stroke="none" stroke-width="0" fill="#82c91e" fill-rule="evenodd"></path><path d="M0 0 C0.66 -0.06, 2.47 -0.21, 3.99 -0.33 C5.5 -0.45, 6.83 -0.36, 9.1 -0.7 C11.38 -1.05, 14.78 -1.61, 17.64 -2.41 C20.49 -3.2, 24.1 -4.52, 26.24 -5.48 C28.38 -6.45, 29.41 -7.53, 30.49 -8.21 C31.56 -8.89, 32.04 -8.98, 32.69 -9.55 C33.34 -10.12, 33.85 -10.96, 34.38 -11.61 C34.9 -12.26, 35.59 -13.35, 35.82 -13.47 C36.06 -13.59, 36.27 -13.23, 35.79 -12.31 C35.31 -11.39, 33.57 -8.83, 32.94 -7.95 C32.32 -7.07, 32.34 -7.36, 32.03 -7.04 C31.72 -6.72, 31.58 -6.55, 31.08 -6.03 C30.58 -5.51, 30.25 -4.84, 29.02 -3.92 C27.78 -3, 25.76 -1.48, 23.67 -0.51 C21.58 0.45, 18.74 1.25, 16.46 1.88 C14.18 2.5, 12.17 2.93, 9.99 3.23 C7.8 3.53, 5.51 3.64, 3.36 3.67 C1.21 3.7, -1.36 4, -2.93 3.43 C-4.5 2.85, -6.56 0.81, -6.07 0.24 C-5.58 -0.33, -1.01 0.04, 0 0 M0 0 C0.66 -0.06, 2.47 -0.21, 3.99 -0.33 C5.5 -0.45, 6.83 -0.36, 9.1 -0.7 C11.38 -1.05, 14.78 -1.61, 17.64 -2.41 C20.49 -3.2, 24.1 -4.52, 26.24 -5.48 C28.38 -6.45, 29.41 -7.53, 30.49 -8.21 C31.56 -8.89, 32.04 -8.98, 32.69 -9.55 C33.34 -10.12, 33.85 -10.96, 34.38 -11.61 C34.9 -12.26, 35.59 -13.35, 35.82 -13.47 C36.06 -13.59, 36.27 -13.23, 35.79 -12.31 C35.31 -11.39, 33.57 -8.83, 32.94 -7.95 C32.32 -7.07, 32.34 -7.36, 32.03 -7.04 C31.72 -6.72, 31.58 -6.55, 31.08 -6.03 C30.58 -5.51, 30.25 -4.84, 29.02 -3.92 C27.78 -3, 25.76 -1.48, 23.67 -0.51 C21.58 0.45, 18.74 1.25, 16.46 1.88 C14.18 2.5, 12.17 2.93, 9.99 3.23 C7.8 3.53, 5.51 3.64, 3.36 3.67 C1.21 3.7, -1.36 4, -2.93 3.43 C-4.5 2.85, -6.56 0.81, -6.07 0.24 C-5.58 -0.33, -1.01 0.04, 0 0" stroke="#82c91e" stroke-width="1" fill="none"></path></g></g><g stroke-linecap="round" transform="translate(24.914218747201176 244.57204024956616) rotate(349.49460188942567 2.1145491772300886 2.0403652252309996)"><path d="M4.23 2.04 C4.23 2.16, 4.22 2.28, 4.2 2.39 C4.18 2.51, 4.14 2.63, 4.1 2.74 C4.06 2.85, 4.01 2.96, 3.95 3.06 C3.88 3.16, 3.81 3.26, 3.73 3.35 C3.66 3.44, 3.57 3.53, 3.47 3.6 C3.38 3.68, 3.28 3.75, 3.17 3.81 C3.07 3.87, 2.95 3.92, 2.84 3.96 C2.72 4, 2.6 4.03, 2.48 4.05 C2.36 4.07, 2.24 4.08, 2.11 4.08 C1.99 4.08, 1.87 4.07, 1.75 4.05 C1.63 4.03, 1.51 4, 1.39 3.96 C1.28 3.92, 1.16 3.87, 1.06 3.81 C0.95 3.75, 0.85 3.68, 0.76 3.6 C0.66 3.53, 0.57 3.44, 0.49 3.35 C0.42 3.26, 0.34 3.16, 0.28 3.06 C0.22 2.96, 0.17 2.85, 0.13 2.74 C0.09 2.63, 0.05 2.51, 0.03 2.39 C0.01 2.28, 0 2.16, 0 2.04 C0 1.92, 0.01 1.8, 0.03 1.69 C0.05 1.57, 0.09 1.45, 0.13 1.34 C0.17 1.23, 0.22 1.12, 0.28 1.02 C0.34 0.92, 0.42 0.82, 0.49 0.73 C0.57 0.64, 0.66 0.55, 0.76 0.48 C0.85 0.4, 0.95 0.33, 1.06 0.27 C1.16 0.21, 1.28 0.16, 1.39 0.12 C1.51 0.08, 1.63 0.05, 1.75 0.03 C1.87 0.01, 1.99 0, 2.11 0 C2.24 0, 2.36 0.01, 2.48 0.03 C2.6 0.05, 2.72 0.08, 2.84 0.12 C2.95 0.16, 3.07 0.21, 3.17 0.27 C3.28 0.33, 3.38 0.4, 3.47 0.48 C3.57 0.55, 3.66 0.64, 3.73 0.73 C3.81 0.82, 3.88 0.92, 3.95 1.02 C4.01 1.12, 4.06 1.23, 4.1 1.34 C4.14 1.45, 4.18 1.57, 4.2 1.69 C4.22 1.8, 4.22 1.98, 4.23 2.04 C4.23 2.1, 4.23 1.98, 4.23 2.04" stroke="none" stroke-width="0" fill="#ffffff"></path><path d="M4.23 2.04 C4.23 2.16, 4.22 2.28, 4.2 2.39 C4.18 2.51, 4.14 2.63, 4.1 2.74 C4.06 2.85, 4.01 2.96, 3.95 3.06 C3.88 3.16, 3.81 3.26, 3.73 3.35 C3.66 3.44, 3.57 3.53, 3.47 3.6 C3.38 3.68, 3.28 3.75, 3.17 3.81 C3.07 3.87, 2.95 3.92, 2.84 3.96 C2.72 4, 2.6 4.03, 2.48 4.05 C2.36 4.07, 2.24 4.08, 2.11 4.08 C1.99 4.08, 1.87 4.07, 1.75 4.05 C1.63 4.03, 1.51 4, 1.39 3.96 C1.28 3.92, 1.16 3.87, 1.06 3.81 C0.95 3.75, 0.85 3.68, 0.76 3.6 C0.66 3.53, 0.57 3.44, 0.49 3.35 C0.42 3.26, 0.34 3.16, 0.28 3.06 C0.22 2.96, 0.17 2.85, 0.13 2.74 C0.09 2.63, 0.05 2.51, 0.03 2.39 C0.01 2.28, 0 2.16, 0 2.04 C0 1.92, 0.01 1.8, 0.03 1.69 C0.05 1.57, 0.09 1.45, 0.13 1.34 C0.17 1.23, 0.22 1.12, 0.28 1.02 C0.34 0.92, 0.42 0.82, 0.49 0.73 C0.57 0.64, 0.66 0.55, 0.76 0.48 C0.85 0.4, 0.95 0.33, 1.06 0.27 C1.16 0.21, 1.28 0.16, 1.39 0.12 C1.51 0.08, 1.63 0.05, 1.75 0.03 C1.87 0.01, 1.99 0, 2.11 0 C2.24 0, 2.36 0.01, 2.48 0.03 C2.6 0.05, 2.72 0.08, 2.84 0.12 C2.95 0.16, 3.07 0.21, 3.17 0.27 C3.28 0.33, 3.38 0.4, 3.47 0.48 C3.57 0.55, 3.66 0.64, 3.73 0.73 C3.81 0.82, 3.88 0.92, 3.95 1.02 C4.01 1.12, 4.06 1.23, 4.1 1.34 C4.14 1.45, 4.18 1.57, 4.2 1.69 C4.22 1.8, 4.22 1.98, 4.23 2.04 C4.23 2.1, 4.23 1.98, 4.23 2.04" stroke="#82c91e" stroke-width="1" fill="none"></path></g><g transform="translate(77.5 216) rotate(0 65 11.5)"><text x="65" y="19" font-family="Helvetica, Segoe UI Emoji" font-size="20px" fill="#000000" text-anchor="middle" style="white-space: pre;" direction="ltr">ms-storefronts</text></g><g stroke-linecap="round" transform="translate(365 185) rotate(0 130 41.5)"><path d="M0 0 L260 0 L260 83 L0 83" stroke="none" stroke-width="0" fill="#fffcc9"></path><path d="M0 0 C88.76 0, 177.52 0, 260 0 M0 0 C85.56 0, 171.13 0, 260 0 M260 0 C260 20.98, 260 41.95, 260 83 M260 0 C260 27.19, 260 54.38, 260 83 M260 83 C168.62 83, 77.24 83, 0 83 M260 83 C207.35 83, 154.69 83, 0 83 M0 83 C0 51.91, 0 20.82, 0 0 M0 83 C0 51.37, 0 19.75, 0 0" stroke="#000000" stroke-width="1" fill="none"></path></g><g stroke-linecap="round" transform="translate(376.7741882687585 200.0575730803389) rotate(349.49460188942567 28.405699134348822 27.875079781540137)"><path d="M56.81 27.88 C56.81 29.49, 56.67 31.13, 56.38 32.72 C56.09 34.3, 55.66 35.89, 55.1 37.41 C54.54 38.93, 53.83 40.42, 53.01 41.81 C52.18 43.21, 51.22 44.56, 50.17 45.79 C49.11 47.03, 47.92 48.19, 46.66 49.23 C45.41 50.27, 44.03 51.21, 42.61 52.02 C41.18 52.82, 39.67 53.52, 38.12 54.07 C36.58 54.62, 34.96 55.05, 33.34 55.33 C31.72 55.61, 30.05 55.75, 28.41 55.75 C26.76 55.75, 25.09 55.61, 23.47 55.33 C21.85 55.05, 20.24 54.62, 18.69 54.07 C17.15 53.52, 15.63 52.82, 14.2 52.02 C12.78 51.21, 11.41 50.27, 10.15 49.23 C8.89 48.19, 7.7 47.03, 6.65 45.79 C5.59 44.56, 4.63 43.21, 3.81 41.81 C2.98 40.42, 2.28 38.93, 1.71 37.41 C1.15 35.89, 0.72 34.3, 0.43 32.72 C0.15 31.13, 0 29.49, 0 27.88 C0 26.26, 0.15 24.62, 0.43 23.03 C0.72 21.45, 1.15 19.86, 1.71 18.34 C2.28 16.83, 2.98 15.33, 3.81 13.94 C4.63 12.54, 5.59 11.19, 6.65 9.96 C7.7 8.72, 8.89 7.56, 10.15 6.52 C11.41 5.48, 12.78 4.54, 14.2 3.73 C15.63 2.93, 17.15 2.23, 18.69 1.68 C20.24 1.13, 21.85 0.7, 23.47 0.42 C25.09 0.14, 26.76 0, 28.41 0 C30.05 0, 31.72 0.14, 33.34 0.42 C34.96 0.7, 36.58 1.13, 38.12 1.68 C39.67 2.23, 41.18 2.93, 42.61 3.73 C44.03 4.54, 45.41 5.48, 46.66 6.52 C47.92 7.56, 49.11 8.72, 50.17 9.96 C51.22 11.19, 52.18 12.54, 53.01 13.94 C53.83 15.33, 54.54 16.83, 55.1 18.34 C55.66 19.86, 56.09 21.45, 56.38 23.03 C56.67 24.62, 56.74 27.07, 56.81 27.88 C56.88 28.68, 56.88 27.07, 56.81 27.88" stroke="none" stroke-width="0" fill="#bfc548"></path><path d="M56.81 27.88 C56.81 29.49, 56.67 31.13, 56.38 32.72 C56.09 34.3, 55.66 35.89, 55.1 37.41 C54.54 38.93, 53.83 40.42, 53.01 41.81 C52.18 43.21, 51.22 44.56, 50.17 45.79 C49.11 47.03, 47.92 48.19, 46.66 49.23 C45.41 50.27, 44.03 51.21, 42.61 52.02 C41.18 52.82, 39.67 53.52, 38.12 54.07 C36.58 54.62, 34.96 55.05, 33.34 55.33 C31.72 55.61, 30.05 55.75, 28.41 55.75 C26.76 55.75, 25.09 55.61, 23.47 55.33 C21.85 55.05, 20.24 54.62, 18.69 54.07 C17.15 53.52, 15.63 52.82, 14.2 52.02 C12.78 51.21, 11.41 50.27, 10.15 49.23 C8.89 48.19, 7.7 47.03, 6.65 45.79 C5.59 44.56, 4.63 43.21, 3.81 41.81 C2.98 40.42, 2.28 38.93, 1.71 37.41 C1.15 35.89, 0.72 34.3, 0.43 32.72 C0.15 31.13, 0 29.49, 0 27.88 C0 26.26, 0.15 24.62, 0.43 23.03 C0.72 21.45, 1.15 19.86, 1.71 18.34 C2.28 16.83, 2.98 15.33, 3.81 13.94 C4.63 12.54, 5.59 11.19, 6.65 9.96 C7.7 8.72, 8.89 7.56, 10.15 6.52 C11.41 5.48, 12.78 4.54, 14.2 3.73 C15.63 2.93, 17.15 2.23, 18.69 1.68 C20.24 1.13, 21.85 0.7, 23.47 0.42 C25.09 0.14, 26.76 0, 28.41 0 C30.05 0, 31.72 0.14, 33.34 0.42 C34.96 0.7, 36.58 1.13, 38.12 1.68 C39.67 2.23, 41.18 2.93, 42.61 3.73 C44.03 4.54, 45.41 5.48, 46.66 6.52 C47.92 7.56, 49.11 8.72, 50.17 9.96 C51.22 11.19, 52.18 12.54, 53.01 13.94 C53.83 15.33, 54.54 16.83, 55.1 18.34 C55.66 19.86, 56.09 21.45, 56.38 23.03 C56.67 24.62, 56.74 27.07, 56.81 27.88 C56.88 28.68, 56.88 27.07, 56.81 27.88" stroke="#bfc548" stroke-width="1" fill="none"></path></g><g stroke-linecap="round"><g transform="translate(386.97514361886056 243.18257867402883) rotate(349.49460188942567 22.661735869555798 -13.818463752284941)" fill-rule="evenodd"><path d="M0 0 L0.15 0.53 L-4.45 -6.5 L-4.78 -13.44 L-2.39 -18.3 L2.45 -22.24 L11.81 -24.68 L34.93 -21.55 L39.33 -22.16 L42.62 -23.55 L47.52 -27.41 L50.33 -32.73 L48.77 -19.96 L44.97 -11.55 L37.16 -3.55 L30.46 0.77 L23.07 4.18 L16.15 5.27 L9.79 4.87 L4.16 2.81 L-0.51 0.03 L0 0" stroke="none" stroke-width="0" fill="#ffffff" fill-rule="evenodd"></path><path d="M0 0 C-0.04 0.04, 0.51 1.31, -0.23 0.22 C-0.98 -0.86, -3.7 -4.22, -4.45 -6.5 C-5.21 -8.78, -5.13 -11.48, -4.78 -13.44 C-4.44 -15.41, -3.59 -16.83, -2.39 -18.3 C-1.18 -19.76, 0.08 -21.17, 2.45 -22.24 C4.81 -23.3, 8.7 -24.4, 11.81 -24.68 C14.92 -24.95, 17.24 -24.4, 21.1 -23.88 C24.95 -23.36, 31.35 -21.61, 34.93 -21.55 C38.52 -21.5, 40.52 -22.57, 42.62 -23.55 C44.71 -24.53, 46.23 -25.88, 47.52 -27.41 C48.8 -28.94, 50.12 -33.97, 50.33 -32.73 C50.54 -31.49, 49.66 -23.48, 48.77 -19.96 C47.87 -16.43, 46.9 -14.29, 44.97 -11.55 C43.03 -8.82, 40.81 -6.17, 37.16 -3.55 C33.51 -0.93, 27.63 2.77, 23.07 4.18 C18.51 5.58, 13.6 5.47, 9.79 4.87 C5.97 4.27, 1.81 1.4, 0.17 0.59 C-1.46 -0.23, 0.03 0.1, 0 0 M0 0 C-0.04 0.04, 0.51 1.31, -0.23 0.22 C-0.98 -0.86, -3.7 -4.22, -4.45 -6.5 C-5.21 -8.78, -5.13 -11.48, -4.78 -13.44 C-4.44 -15.41, -3.59 -16.83, -2.39 -18.3 C-1.18 -19.76, 0.08 -21.17, 2.45 -22.24 C4.81 -23.3, 8.7 -24.4, 11.81 -24.68 C14.92 -24.95, 17.24 -24.4, 21.1 -23.88 C24.95 -23.36, 31.35 -21.61, 34.93 -21.55 C38.52 -21.5, 40.52 -22.57, 42.62 -23.55 C44.71 -24.53, 46.23 -25.88, 47.52 -27.41 C48.8 -28.94, 50.12 -33.97, 50.33 -32.73 C50.54 -31.49, 49.66 -23.48, 48.77 -19.96 C47.87 -16.43, 46.9 -14.29, 44.97 -11.55 C43.03 -8.82, 40.81 -6.17, 37.16 -3.55 C33.51 -0.93, 27.63 2.77, 23.07 4.18 C18.51 5.58, 13.6 5.47, 9.79 4.87 C5.97 4.27, 1.81 1.4, 0.17 0.59 C-1.46 -0.23, 0.03 0.1, 0 0" stroke="#82c91e" stroke-width="1" fill="none"></path></g></g><g stroke-linecap="round"><g transform="translate(391.65599281492564 241.0056739170235) rotate(349.49460188942567 14.967938169838533 -4.8574987692893785)" fill-rule="evenodd"><path d="M0 0 L9.1 -0.7 L17.64 -2.41 L26.24 -5.48 L32.69 -9.55 L35.82 -13.47 L35.79 -12.31 L32.94 -7.95 L29.02 -3.92 L23.67 -0.51 L9.99 3.23 L3.36 3.67 L-2.93 3.43 L-5.27 1.83 L-6.07 0.24 L0 0" stroke="none" stroke-width="0" fill="#82c91e" fill-rule="evenodd"></path><path d="M0 0 C0.66 -0.06, 2.47 -0.21, 3.99 -0.33 C5.5 -0.45, 6.83 -0.36, 9.1 -0.7 C11.38 -1.05, 14.78 -1.61, 17.64 -2.41 C20.49 -3.2, 24.1 -4.52, 26.24 -5.48 C28.38 -6.45, 29.41 -7.53, 30.49 -8.21 C31.56 -8.89, 32.04 -8.98, 32.69 -9.55 C33.34 -10.12, 33.85 -10.96, 34.38 -11.61 C34.9 -12.26, 35.59 -13.35, 35.82 -13.47 C36.06 -13.59, 36.27 -13.23, 35.79 -12.31 C35.31 -11.39, 33.57 -8.83, 32.94 -7.95 C32.32 -7.07, 32.34 -7.36, 32.03 -7.04 C31.72 -6.72, 31.58 -6.55, 31.08 -6.03 C30.58 -5.51, 30.25 -4.84, 29.02 -3.92 C27.78 -3, 25.76 -1.48, 23.67 -0.51 C21.58 0.45, 18.74 1.25, 16.46 1.88 C14.18 2.5, 12.17 2.93, 9.99 3.23 C7.8 3.53, 5.51 3.64, 3.36 3.67 C1.21 3.7, -1.36 4, -2.93 3.43 C-4.5 2.85, -6.56 0.81, -6.07 0.24 C-5.58 -0.33, -1.01 0.04, 0 0 M0 0 C0.66 -0.06, 2.47 -0.21, 3.99 -0.33 C5.5 -0.45, 6.83 -0.36, 9.1 -0.7 C11.38 -1.05, 14.78 -1.61, 17.64 -2.41 C20.49 -3.2, 24.1 -4.52, 26.24 -5.48 C28.38 -6.45, 29.41 -7.53, 30.49 -8.21 C31.56 -8.89, 32.04 -8.98, 32.69 -9.55 C33.34 -10.12, 33.85 -10.96, 34.38 -11.61 C34.9 -12.26, 35.59 -13.35, 35.82 -13.47 C36.06 -13.59, 36.27 -13.23, 35.79 -12.31 C35.31 -11.39, 33.57 -8.83, 32.94 -7.95 C32.32 -7.07, 32.34 -7.36, 32.03 -7.04 C31.72 -6.72, 31.58 -6.55, 31.08 -6.03 C30.58 -5.51, 30.25 -4.84, 29.02 -3.92 C27.78 -3, 25.76 -1.48, 23.67 -0.51 C21.58 0.45, 18.74 1.25, 16.46 1.88 C14.18 2.5, 12.17 2.93, 9.99 3.23 C7.8 3.53, 5.51 3.64, 3.36 3.67 C1.21 3.7, -1.36 4, -2.93 3.43 C-4.5 2.85, -6.56 0.81, -6.07 0.24 C-5.58 -0.33, -1.01 0.04, 0 0" stroke="#82c91e" stroke-width="1" fill="none"></path></g></g><g stroke-linecap="round" transform="translate(383.9142187472012 244.57204024956616) rotate(349.49460188942567 2.114549177230117 2.0403652252309996)"><path d="M4.23 2.04 C4.23 2.16, 4.22 2.28, 4.2 2.39 C4.18 2.51, 4.14 2.63, 4.1 2.74 C4.06 2.85, 4.01 2.96, 3.95 3.06 C3.88 3.16, 3.81 3.26, 3.73 3.35 C3.66 3.44, 3.57 3.53, 3.47 3.6 C3.38 3.68, 3.28 3.75, 3.17 3.81 C3.07 3.87, 2.95 3.92, 2.84 3.96 C2.72 4, 2.6 4.03, 2.48 4.05 C2.36 4.07, 2.24 4.08, 2.11 4.08 C1.99 4.08, 1.87 4.07, 1.75 4.05 C1.63 4.03, 1.51 4, 1.39 3.96 C1.28 3.92, 1.16 3.87, 1.06 3.81 C0.95 3.75, 0.85 3.68, 0.76 3.6 C0.66 3.53, 0.57 3.44, 0.49 3.35 C0.42 3.26, 0.34 3.16, 0.28 3.06 C0.22 2.96, 0.17 2.85, 0.13 2.74 C0.09 2.63, 0.05 2.51, 0.03 2.39 C0.01 2.28, 0 2.16, 0 2.04 C0 1.92, 0.01 1.8, 0.03 1.69 C0.05 1.57, 0.09 1.45, 0.13 1.34 C0.17 1.23, 0.22 1.12, 0.28 1.02 C0.34 0.92, 0.42 0.82, 0.49 0.73 C0.57 0.64, 0.66 0.55, 0.76 0.48 C0.85 0.4, 0.95 0.33, 1.06 0.27 C1.16 0.21, 1.28 0.16, 1.39 0.12 C1.51 0.08, 1.63 0.05, 1.75 0.03 C1.87 0.01, 1.99 0, 2.11 0 C2.24 0, 2.36 0.01, 2.48 0.03 C2.6 0.05, 2.72 0.08, 2.84 0.12 C2.95 0.16, 3.07 0.21, 3.17 0.27 C3.28 0.33, 3.38 0.4, 3.47 0.48 C3.57 0.55, 3.66 0.64, 3.73 0.73 C3.81 0.82, 3.88 0.92, 3.95 1.02 C4.01 1.12, 4.06 1.23, 4.1 1.34 C4.14 1.45, 4.18 1.57, 4.2 1.69 C4.22 1.8, 4.22 1.98, 4.23 2.04 C4.23 2.1, 4.23 1.98, 4.23 2.04" stroke="none" stroke-width="0" fill="#ffffff"></path><path d="M4.23 2.04 C4.23 2.16, 4.22 2.28, 4.2 2.39 C4.18 2.51, 4.14 2.63, 4.1 2.74 C4.06 2.85, 4.01 2.96, 3.95 3.06 C3.88 3.16, 3.81 3.26, 3.73 3.35 C3.66 3.44, 3.57 3.53, 3.47 3.6 C3.38 3.68, 3.28 3.75, 3.17 3.81 C3.07 3.87, 2.95 3.92, 2.84 3.96 C2.72 4, 2.6 4.03, 2.48 4.05 C2.36 4.07, 2.24 4.08, 2.11 4.08 C1.99 4.08, 1.87 4.07, 1.75 4.05 C1.63 4.03, 1.51 4, 1.39 3.96 C1.28 3.92, 1.16 3.87, 1.06 3.81 C0.95 3.75, 0.85 3.68, 0.76 3.6 C0.66 3.53, 0.57 3.44, 0.49 3.35 C0.42 3.26, 0.34 3.16, 0.28 3.06 C0.22 2.96, 0.17 2.85, 0.13 2.74 C0.09 2.63, 0.05 2.51, 0.03 2.39 C0.01 2.28, 0 2.16, 0 2.04 C0 1.92, 0.01 1.8, 0.03 1.69 C0.05 1.57, 0.09 1.45, 0.13 1.34 C0.17 1.23, 0.22 1.12, 0.28 1.02 C0.34 0.92, 0.42 0.82, 0.49 0.73 C0.57 0.64, 0.66 0.55, 0.76 0.48 C0.85 0.4, 0.95 0.33, 1.06 0.27 C1.16 0.21, 1.28 0.16, 1.39 0.12 C1.51 0.08, 1.63 0.05, 1.75 0.03 C1.87 0.01, 1.99 0, 2.11 0 C2.24 0, 2.36 0.01, 2.48 0.03 C2.6 0.05, 2.72 0.08, 2.84 0.12 C2.95 0.16, 3.07 0.21, 3.17 0.27 C3.28 0.33, 3.38 0.4, 3.47 0.48 C3.57 0.55, 3.66 0.64, 3.73 0.73 C3.81 0.82, 3.88 0.92, 3.95 1.02 C4.01 1.12, 4.06 1.23, 4.1 1.34 C4.14 1.45, 4.18 1.57, 4.2 1.69 C4.22 1.8, 4.22 1.98, 4.23 2.04 C4.23 2.1, 4.23 1.98, 4.23 2.04" stroke="#82c91e" stroke-width="1" fill="none"></path></g><g transform="translate(439 215) rotate(0 56 11.5)"><text x="56" y="19" font-family="Helvetica, Segoe UI Emoji" font-size="20px" fill="#000000" text-anchor="middle" style="white-space: pre;" direction="ltr">ms-products</text></g><g stroke-linecap="round"><g transform="translate(547.7658773697416 360.14798588517976) rotate(0 43.929293631071914 47.84844197953345)" fill-rule="evenodd"><path d="M0 0 L0.29 86.05 L-0.11 96.06 L-0.24 95.58 L1.28 98.35 L11.05 102.07 L20.32 103.67 L46.98 104.78 L72.46 103 L80.7 100.98 L85.99 98.74 L87.78 97.17 L88.06 -1.3 L87.48 -0.34 L85.37 -2.78 L77.2 -5.93 L64.04 -7.64 L42.71 -9.08 L20.92 -7.85 L11.22 -5.92 L3.78 -3.68 L0.79 -1.61 L0 0" stroke="none" stroke-width="0" fill="#fa5252" fill-rule="evenodd"></path><path d="M0 0 C0.05 14.34, 0.29 70.08, 0.29 86.05 C0.29 102.03, -0.7 93.51, 0.01 95.85 C0.72 98.19, 1.16 98.78, 4.54 100.08 C7.93 101.39, 13.24 102.88, 20.32 103.67 C27.39 104.45, 38.29 104.89, 46.98 104.78 C55.67 104.67, 65.95 104.01, 72.46 103 C78.96 101.99, 83.42 100.05, 85.99 98.74 C88.57 97.43, 87.54 97.06, 87.9 95.15 C88.26 93.24, 88.16 101.92, 88.17 87.26 C88.18 72.61, 88.07 21.82, 87.96 7.22 C87.84 -7.38, 88.51 1.62, 87.48 -0.34 C86.46 -2.31, 84.75 -3.46, 81.82 -4.57 C78.89 -5.68, 76.41 -6.27, 69.89 -7.02 C63.37 -7.77, 50.87 -8.94, 42.71 -9.08 C34.55 -9.22, 27.4 -8.75, 20.92 -7.85 C14.43 -6.95, 7.27 -4.98, 3.78 -3.68 C0.28 -2.39, 0.58 -0.67, -0.05 -0.05 C-0.68 0.56, -0.01 -0.01, 0 0 M0 0 C0.05 14.34, 0.29 70.08, 0.29 86.05 C0.29 102.03, -0.7 93.51, 0.01 95.85 C0.72 98.19, 1.16 98.78, 4.54 100.08 C7.93 101.39, 13.24 102.88, 20.32 103.67 C27.39 104.45, 38.29 104.89, 46.98 104.78 C55.67 104.67, 65.95 104.01, 72.46 103 C78.96 101.99, 83.42 100.05, 85.99 98.74 C88.57 97.43, 87.54 97.06, 87.9 95.15 C88.26 93.24, 88.16 101.92, 88.17 87.26 C88.18 72.61, 88.07 21.82, 87.96 7.22 C87.84 -7.38, 88.51 1.62, 87.48 -0.34 C86.46 -2.31, 84.75 -3.46, 81.82 -4.57 C78.89 -5.68, 76.41 -6.27, 69.89 -7.02 C63.37 -7.77, 50.87 -8.94, 42.71 -9.08 C34.55 -9.22, 27.4 -8.75, 20.92 -7.85 C14.43 -6.95, 7.27 -4.98, 3.78 -3.68 C0.28 -2.39, 0.58 -0.67, -0.05 -0.05 C-0.68 0.56, -0.01 -0.01, 0 0" stroke="#a61e4d" stroke-width="1" fill="none"></path></g></g><g stroke-linecap="round"><g transform="translate(548.453238959239 425.4381139159673) rotate(0 44.15404313987261 4.507836139469248)"><path d="M0 0 C0.39 0.65, 0.27 2.71, 2.33 3.91 C4.39 5.1, 8.46 6.31, 12.36 7.18 C16.26 8.06, 20 8.81, 25.71 9.17 C31.42 9.53, 39.07 9.53, 46.63 9.35 C54.18 9.17, 64.59 9.06, 71.04 8.08 C77.48 7.11, 82.41 4.91, 85.29 3.49 C88.17 2.07, 87.81 0.21, 88.31 -0.45 M0 0 C0.39 0.65, 0.27 2.71, 2.33 3.91 C4.39 5.1, 8.46 6.31, 12.36 7.18 C16.26 8.06, 20 8.81, 25.71 9.17 C31.42 9.53, 39.07 9.53, 46.63 9.35 C54.18 9.17, 64.59 9.06, 71.04 8.08 C77.48 7.11, 82.41 4.91, 85.29 3.49 C88.17 2.07, 87.81 0.21, 88.31 -0.45" stroke="#a61e4d" stroke-width="1" fill="none"></path></g></g><g stroke-linecap="round"><g transform="translate(547.3594974471775 392.36395935389555) rotate(0 44.15404313987261 4.507836139469248)"><path d="M0 0 C0.39 0.65, 0.27 2.71, 2.33 3.91 C4.39 5.1, 8.46 6.31, 12.36 7.18 C16.26 8.06, 20 8.81, 25.71 9.17 C31.42 9.53, 39.07 9.53, 46.63 9.35 C54.18 9.17, 64.59 9.06, 71.04 8.08 C77.48 7.11, 82.41 4.91, 85.29 3.49 C88.17 2.07, 87.81 0.21, 88.31 -0.45 M0 0 C0.39 0.65, 0.27 2.71, 2.33 3.91 C4.39 5.1, 8.46 6.31, 12.36 7.18 C16.26 8.06, 20 8.81, 25.71 9.17 C31.42 9.53, 39.07 9.53, 46.63 9.35 C54.18 9.17, 64.59 9.06, 71.04 8.08 C77.48 7.11, 82.41 4.91, 85.29 3.49 C88.17 2.07, 87.81 0.21, 88.31 -0.45" stroke="#a61e4d" stroke-width="1" fill="none"></path></g></g><g stroke-linecap="round" transform="translate(546.2386747610158 352.1232896580831) rotate(0 43.825373054270926 8.863351988406805)"><path d="M87.65 8.86 C87.65 9.38, 87.43 9.9, 86.98 10.4 C86.54 10.91, 85.88 11.41, 85.01 11.89 C84.14 12.38, 83.05 12.85, 81.78 13.3 C80.51 13.74, 79.03 14.17, 77.4 14.56 C75.77 14.95, 73.94 15.32, 72 15.65 C70.05 15.98, 67.93 16.28, 65.74 16.54 C63.54 16.8, 61.2 17.02, 58.81 17.19 C56.43 17.37, 53.93 17.5, 51.44 17.59 C48.94 17.68, 46.36 17.73, 43.83 17.73 C41.29 17.73, 38.71 17.68, 36.22 17.59 C33.72 17.5, 31.22 17.37, 28.84 17.19 C26.45 17.02, 24.11 16.8, 21.91 16.54 C19.72 16.28, 17.6 15.98, 15.65 15.65 C13.71 15.32, 11.88 14.95, 10.25 14.56 C8.62 14.17, 7.14 13.74, 5.87 13.3 C4.6 12.85, 3.51 12.38, 2.64 11.89 C1.78 11.41, 1.11 10.91, 0.67 10.4 C0.23 9.9, 0 9.38, 0 8.86 C0 8.35, 0.23 7.83, 0.67 7.32 C1.11 6.82, 1.78 6.31, 2.64 5.83 C3.51 5.35, 4.6 4.88, 5.87 4.43 C7.14 3.99, 8.62 3.56, 10.25 3.17 C11.88 2.77, 13.71 2.4, 15.65 2.07 C17.6 1.74, 19.72 1.44, 21.91 1.19 C24.11 0.93, 26.45 0.71, 28.84 0.53 C31.22 0.36, 33.72 0.22, 36.22 0.13 C38.71 0.05, 41.29 0, 43.83 0 C46.36 0, 48.94 0.05, 51.44 0.13 C53.93 0.22, 56.43 0.36, 58.81 0.53 C61.2 0.71, 63.54 0.93, 65.74 1.19 C67.93 1.44, 70.05 1.74, 72 2.07 C73.94 2.4, 75.77 2.77, 77.4 3.17 C79.03 3.56, 80.51 3.99, 81.78 4.43 C83.05 4.88, 84.14 5.35, 85.01 5.83 C85.88 6.31, 86.54 6.82, 86.98 7.32 C87.43 7.83, 87.54 8.61, 87.65 8.86 C87.76 9.12, 87.76 8.61, 87.65 8.86" stroke="none" stroke-width="0" fill="#fff"></path><path d="M87.65 8.86 C87.65 9.38, 87.43 9.9, 86.98 10.4 C86.54 10.91, 85.88 11.41, 85.01 11.89 C84.14 12.38, 83.05 12.85, 81.78 13.3 C80.51 13.74, 79.03 14.17, 77.4 14.56 C75.77 14.95, 73.94 15.32, 72 15.65 C70.05 15.98, 67.93 16.28, 65.74 16.54 C63.54 16.8, 61.2 17.02, 58.81 17.19 C56.43 17.37, 53.93 17.5, 51.44 17.59 C48.94 17.68, 46.36 17.73, 43.83 17.73 C41.29 17.73, 38.71 17.68, 36.22 17.59 C33.72 17.5, 31.22 17.37, 28.84 17.19 C26.45 17.02, 24.11 16.8, 21.91 16.54 C19.72 16.28, 17.6 15.98, 15.65 15.65 C13.71 15.32, 11.88 14.95, 10.25 14.56 C8.62 14.17, 7.14 13.74, 5.87 13.3 C4.6 12.85, 3.51 12.38, 2.64 11.89 C1.78 11.41, 1.11 10.91, 0.67 10.4 C0.23 9.9, 0 9.38, 0 8.86 C0 8.35, 0.23 7.83, 0.67 7.32 C1.11 6.82, 1.78 6.31, 2.64 5.83 C3.51 5.35, 4.6 4.88, 5.87 4.43 C7.14 3.99, 8.62 3.56, 10.25 3.17 C11.88 2.77, 13.71 2.4, 15.65 2.07 C17.6 1.74, 19.72 1.44, 21.91 1.19 C24.11 0.93, 26.45 0.71, 28.84 0.53 C31.22 0.36, 33.72 0.22, 36.22 0.13 C38.71 0.05, 41.29 0, 43.83 0 C46.36 0, 48.94 0.05, 51.44 0.13 C53.93 0.22, 56.43 0.36, 58.81 0.53 C61.2 0.71, 63.54 0.93, 65.74 1.19 C67.93 1.44, 70.05 1.74, 72 2.07 C73.94 2.4, 75.77 2.77, 77.4 3.17 C79.03 3.56, 80.51 3.99, 81.78 4.43 C83.05 4.88, 84.14 5.35, 85.01 5.83 C85.88 6.31, 86.54 6.82, 86.98 7.32 C87.43 7.83, 87.54 8.61, 87.65 8.86 C87.76 9.12, 87.76 8.61, 87.65 8.86" stroke="#a61e4d" stroke-width="1" fill="none"></path></g><g stroke-linecap="round" transform="translate(617.7484070615964 376.69909253521655) rotate(0 6.423028523489904 6.97095218120802)"><path d="M12.85 6.97 C12.85 7.37, 12.81 7.78, 12.75 8.18 C12.68 8.58, 12.59 8.98, 12.46 9.36 C12.33 9.73, 12.17 10.11, 11.99 10.46 C11.8 10.81, 11.58 11.14, 11.34 11.45 C11.1 11.76, 10.84 12.05, 10.55 12.31 C10.27 12.57, 9.96 12.81, 9.63 13.01 C9.31 13.21, 8.97 13.38, 8.62 13.52 C8.27 13.66, 7.9 13.77, 7.54 13.84 C7.17 13.91, 6.79 13.94, 6.42 13.94 C6.05 13.94, 5.67 13.91, 5.31 13.84 C4.94 13.77, 4.58 13.66, 4.23 13.52 C3.88 13.38, 3.53 13.21, 3.21 13.01 C2.89 12.81, 2.58 12.57, 2.29 12.31 C2.01 12.05, 1.74 11.76, 1.5 11.45 C1.26 11.14, 1.05 10.81, 0.86 10.46 C0.67 10.11, 0.51 9.73, 0.39 9.36 C0.26 8.98, 0.16 8.58, 0.1 8.18 C0.03 7.78, 0 7.37, 0 6.97 C0 6.57, 0.03 6.16, 0.1 5.76 C0.16 5.36, 0.26 4.97, 0.39 4.59 C0.51 4.21, 0.67 3.83, 0.86 3.49 C1.05 3.14, 1.26 2.8, 1.5 2.49 C1.74 2.18, 2.01 1.89, 2.29 1.63 C2.58 1.37, 2.89 1.14, 3.21 0.93 C3.53 0.73, 3.88 0.56, 4.23 0.42 C4.58 0.28, 4.94 0.18, 5.31 0.11 C5.67 0.04, 6.05 0, 6.42 0 C6.79 0, 7.17 0.04, 7.54 0.11 C7.9 0.18, 8.27 0.28, 8.62 0.42 C8.97 0.56, 9.31 0.73, 9.63 0.93 C9.96 1.14, 10.27 1.37, 10.55 1.63 C10.84 1.89, 11.1 2.18, 11.34 2.49 C11.58 2.8, 11.8 3.14, 11.99 3.49 C12.17 3.83, 12.33 4.21, 12.46 4.59 C12.59 4.97, 12.68 5.36, 12.75 5.76 C12.81 6.16, 12.83 6.77, 12.85 6.97 C12.86 7.17, 12.86 6.77, 12.85 6.97" stroke="none" stroke-width="0" fill="#fff"></path><path d="M12.85 6.97 C12.85 7.37, 12.81 7.78, 12.75 8.18 C12.68 8.58, 12.59 8.98, 12.46 9.36 C12.33 9.73, 12.17 10.11, 11.99 10.46 C11.8 10.81, 11.58 11.14, 11.34 11.45 C11.1 11.76, 10.84 12.05, 10.55 12.31 C10.27 12.57, 9.96 12.81, 9.63 13.01 C9.31 13.21, 8.97 13.38, 8.62 13.52 C8.27 13.66, 7.9 13.77, 7.54 13.84 C7.17 13.91, 6.79 13.94, 6.42 13.94 C6.05 13.94, 5.67 13.91, 5.31 13.84 C4.94 13.77, 4.58 13.66, 4.23 13.52 C3.88 13.38, 3.53 13.21, 3.21 13.01 C2.89 12.81, 2.58 12.57, 2.29 12.31 C2.01 12.05, 1.74 11.76, 1.5 11.45 C1.26 11.14, 1.05 10.81, 0.86 10.46 C0.67 10.11, 0.51 9.73, 0.39 9.36 C0.26 8.98, 0.16 8.58, 0.1 8.18 C0.03 7.78, 0 7.37, 0 6.97 C0 6.57, 0.03 6.16, 0.1 5.76 C0.16 5.36, 0.26 4.97, 0.39 4.59 C0.51 4.21, 0.67 3.83, 0.86 3.49 C1.05 3.14, 1.26 2.8, 1.5 2.49 C1.74 2.18, 2.01 1.89, 2.29 1.63 C2.58 1.37, 2.89 1.14, 3.21 0.93 C3.53 0.73, 3.88 0.56, 4.23 0.42 C4.58 0.28, 4.94 0.18, 5.31 0.11 C5.67 0.04, 6.05 0, 6.42 0 C6.79 0, 7.17 0.04, 7.54 0.11 C7.9 0.18, 8.27 0.28, 8.62 0.42 C8.97 0.56, 9.31 0.73, 9.63 0.93 C9.96 1.14, 10.27 1.37, 10.55 1.63 C10.84 1.89, 11.1 2.18, 11.34 2.49 C11.58 2.8, 11.8 3.14, 11.99 3.49 C12.17 3.83, 12.33 4.21, 12.46 4.59 C12.59 4.97, 12.68 5.36, 12.75 5.76 C12.81 6.16, 12.83 6.77, 12.85 6.97 C12.86 7.17, 12.86 6.77, 12.85 6.97" stroke="#a61e4d" stroke-width="1" fill="none"></path></g><g stroke-linecap="round" transform="translate(617.7484070615964 407.301546394277) rotate(0 6.423028523489904 6.97095218120802)"><path d="M12.85 6.97 C12.85 7.37, 12.81 7.78, 12.75 8.18 C12.68 8.58, 12.59 8.98, 12.46 9.36 C12.33 9.73, 12.17 10.11, 11.99 10.46 C11.8 10.81, 11.58 11.14, 11.34 11.45 C11.1 11.76, 10.84 12.05, 10.55 12.31 C10.27 12.57, 9.96 12.81, 9.63 13.01 C9.31 13.21, 8.97 13.38, 8.62 13.52 C8.27 13.66, 7.9 13.77, 7.54 13.84 C7.17 13.91, 6.79 13.94, 6.42 13.94 C6.05 13.94, 5.67 13.91, 5.31 13.84 C4.94 13.77, 4.58 13.66, 4.23 13.52 C3.88 13.38, 3.53 13.21, 3.21 13.01 C2.89 12.81, 2.58 12.57, 2.29 12.31 C2.01 12.05, 1.74 11.76, 1.5 11.45 C1.26 11.14, 1.05 10.81, 0.86 10.46 C0.67 10.11, 0.51 9.73, 0.39 9.36 C0.26 8.98, 0.16 8.58, 0.1 8.18 C0.03 7.78, 0 7.37, 0 6.97 C0 6.57, 0.03 6.16, 0.1 5.76 C0.16 5.36, 0.26 4.97, 0.39 4.59 C0.51 4.21, 0.67 3.83, 0.86 3.49 C1.05 3.14, 1.26 2.8, 1.5 2.49 C1.74 2.18, 2.01 1.89, 2.29 1.63 C2.58 1.37, 2.89 1.14, 3.21 0.93 C3.53 0.73, 3.88 0.56, 4.23 0.42 C4.58 0.28, 4.94 0.18, 5.31 0.11 C5.67 0.04, 6.05 0, 6.42 0 C6.79 0, 7.17 0.04, 7.54 0.11 C7.9 0.18, 8.27 0.28, 8.62 0.42 C8.97 0.56, 9.31 0.73, 9.63 0.93 C9.96 1.14, 10.27 1.37, 10.55 1.63 C10.84 1.89, 11.1 2.18, 11.34 2.49 C11.58 2.8, 11.8 3.14, 11.99 3.49 C12.17 3.83, 12.33 4.21, 12.46 4.59 C12.59 4.97, 12.68 5.36, 12.75 5.76 C12.81 6.16, 12.83 6.77, 12.85 6.97 C12.86 7.17, 12.86 6.77, 12.85 6.97" stroke="none" stroke-width="0" fill="#fff"></path><path d="M12.85 6.97 C12.85 7.37, 12.81 7.78, 12.75 8.18 C12.68 8.58, 12.59 8.98, 12.46 9.36 C12.33 9.73, 12.17 10.11, 11.99 10.46 C11.8 10.81, 11.58 11.14, 11.34 11.45 C11.1 11.76, 10.84 12.05, 10.55 12.31 C10.27 12.57, 9.96 12.81, 9.63 13.01 C9.31 13.21, 8.97 13.38, 8.62 13.52 C8.27 13.66, 7.9 13.77, 7.54 13.84 C7.17 13.91, 6.79 13.94, 6.42 13.94 C6.05 13.94, 5.67 13.91, 5.31 13.84 C4.94 13.77, 4.58 13.66, 4.23 13.52 C3.88 13.38, 3.53 13.21, 3.21 13.01 C2.89 12.81, 2.58 12.57, 2.29 12.31 C2.01 12.05, 1.74 11.76, 1.5 11.45 C1.26 11.14, 1.05 10.81, 0.86 10.46 C0.67 10.11, 0.51 9.73, 0.39 9.36 C0.26 8.98, 0.16 8.58, 0.1 8.18 C0.03 7.78, 0 7.37, 0 6.97 C0 6.57, 0.03 6.16, 0.1 5.76 C0.16 5.36, 0.26 4.97, 0.39 4.59 C0.51 4.21, 0.67 3.83, 0.86 3.49 C1.05 3.14, 1.26 2.8, 1.5 2.49 C1.74 2.18, 2.01 1.89, 2.29 1.63 C2.58 1.37, 2.89 1.14, 3.21 0.93 C3.53 0.73, 3.88 0.56, 4.23 0.42 C4.58 0.28, 4.94 0.18, 5.31 0.11 C5.67 0.04, 6.05 0, 6.42 0 C6.79 0, 7.17 0.04, 7.54 0.11 C7.9 0.18, 8.27 0.28, 8.62 0.42 C8.97 0.56, 9.31 0.73, 9.63 0.93 C9.96 1.14, 10.27 1.37, 10.55 1.63 C10.84 1.89, 11.1 2.18, 11.34 2.49 C11.58 2.8, 11.8 3.14, 11.99 3.49 C12.17 3.83, 12.33 4.21, 12.46 4.59 C12.59 4.97, 12.68 5.36, 12.75 5.76 C12.81 6.16, 12.83 6.77, 12.85 6.97 C12.86 7.17, 12.86 6.77, 12.85 6.97" stroke="#a61e4d" stroke-width="1" fill="none"></path></g><g stroke-linecap="round" transform="translate(617.7484070615964 440.5623475687737) rotate(0 6.423028523489904 6.97095218120802)"><path d="M12.85 6.97 C12.85 7.37, 12.81 7.78, 12.75 8.18 C12.68 8.58, 12.59 8.98, 12.46 9.36 C12.33 9.73, 12.17 10.11, 11.99 10.46 C11.8 10.81, 11.58 11.14, 11.34 11.45 C11.1 11.76, 10.84 12.05, 10.55 12.31 C10.27 12.57, 9.96 12.81, 9.63 13.01 C9.31 13.21, 8.97 13.38, 8.62 13.52 C8.27 13.66, 7.9 13.77, 7.54 13.84 C7.17 13.91, 6.79 13.94, 6.42 13.94 C6.05 13.94, 5.67 13.91, 5.31 13.84 C4.94 13.77, 4.58 13.66, 4.23 13.52 C3.88 13.38, 3.53 13.21, 3.21 13.01 C2.89 12.81, 2.58 12.57, 2.29 12.31 C2.01 12.05, 1.74 11.76, 1.5 11.45 C1.26 11.14, 1.05 10.81, 0.86 10.46 C0.67 10.11, 0.51 9.73, 0.39 9.36 C0.26 8.98, 0.16 8.58, 0.1 8.18 C0.03 7.78, 0 7.37, 0 6.97 C0 6.57, 0.03 6.16, 0.1 5.76 C0.16 5.36, 0.26 4.97, 0.39 4.59 C0.51 4.21, 0.67 3.83, 0.86 3.49 C1.05 3.14, 1.26 2.8, 1.5 2.49 C1.74 2.18, 2.01 1.89, 2.29 1.63 C2.58 1.37, 2.89 1.14, 3.21 0.93 C3.53 0.73, 3.88 0.56, 4.23 0.42 C4.58 0.28, 4.94 0.18, 5.31 0.11 C5.67 0.04, 6.05 0, 6.42 0 C6.79 0, 7.17 0.04, 7.54 0.11 C7.9 0.18, 8.27 0.28, 8.62 0.42 C8.97 0.56, 9.31 0.73, 9.63 0.93 C9.96 1.14, 10.27 1.37, 10.55 1.63 C10.84 1.89, 11.1 2.18, 11.34 2.49 C11.58 2.8, 11.8 3.14, 11.99 3.49 C12.17 3.83, 12.33 4.21, 12.46 4.59 C12.59 4.97, 12.68 5.36, 12.75 5.76 C12.81 6.16, 12.83 6.77, 12.85 6.97 C12.86 7.17, 12.86 6.77, 12.85 6.97" stroke="none" stroke-width="0" fill="#fff"></path><path d="M12.85 6.97 C12.85 7.37, 12.81 7.78, 12.75 8.18 C12.68 8.58, 12.59 8.98, 12.46 9.36 C12.33 9.73, 12.17 10.11, 11.99 10.46 C11.8 10.81, 11.58 11.14, 11.34 11.45 C11.1 11.76, 10.84 12.05, 10.55 12.31 C10.27 12.57, 9.96 12.81, 9.63 13.01 C9.31 13.21, 8.97 13.38, 8.62 13.52 C8.27 13.66, 7.9 13.77, 7.54 13.84 C7.17 13.91, 6.79 13.94, 6.42 13.94 C6.05 13.94, 5.67 13.91, 5.31 13.84 C4.94 13.77, 4.58 13.66, 4.23 13.52 C3.88 13.38, 3.53 13.21, 3.21 13.01 C2.89 12.81, 2.58 12.57, 2.29 12.31 C2.01 12.05, 1.74 11.76, 1.5 11.45 C1.26 11.14, 1.05 10.81, 0.86 10.46 C0.67 10.11, 0.51 9.73, 0.39 9.36 C0.26 8.98, 0.16 8.58, 0.1 8.18 C0.03 7.78, 0 7.37, 0 6.97 C0 6.57, 0.03 6.16, 0.1 5.76 C0.16 5.36, 0.26 4.97, 0.39 4.59 C0.51 4.21, 0.67 3.83, 0.86 3.49 C1.05 3.14, 1.26 2.8, 1.5 2.49 C1.74 2.18, 2.01 1.89, 2.29 1.63 C2.58 1.37, 2.89 1.14, 3.21 0.93 C3.53 0.73, 3.88 0.56, 4.23 0.42 C4.58 0.28, 4.94 0.18, 5.31 0.11 C5.67 0.04, 6.05 0, 6.42 0 C6.79 0, 7.17 0.04, 7.54 0.11 C7.9 0.18, 8.27 0.28, 8.62 0.42 C8.97 0.56, 9.31 0.73, 9.63 0.93 C9.96 1.14, 10.27 1.37, 10.55 1.63 C10.84 1.89, 11.1 2.18, 11.34 2.49 C11.58 2.8, 11.8 3.14, 11.99 3.49 C12.17 3.83, 12.33 4.21, 12.46 4.59 C12.59 4.97, 12.68 5.36, 12.75 5.76 C12.81 6.16, 12.83 6.77, 12.85 6.97 C12.86 7.17, 12.86 6.77, 12.85 6.97" stroke="#a61e4d" stroke-width="1" fill="none"></path></g><g stroke-linecap="round"><g transform="translate(392.5 396.0000000000001) rotate(0 74 0.5)"><path d="M0 0 C30.92 0.21, 61.85 0.42, 148 1 M0 0 C36.21 0.24, 72.42 0.49, 148 1" stroke="#a61e4d" stroke-width="1" fill="none"></path></g></g><g stroke-linecap="round"><g transform="translate(353.5221140785826 357.4881184869113) rotate(0 61.75041320167992 -40.05655924345564)"><path d="M0 0 C44.94 -29.16, 89.89 -58.31, 123.5 -80.11" stroke="#364fc7" stroke-width="1.5" fill="none" stroke-dasharray="1.5 7"></path></g><g transform="translate(353.5221140785826 357.4881184869113) rotate(0 61.75041320167992 -40.05655924345564)"><path d="M123.5 -80.11 L115.55 -67.4 L108.65 -78.03 L123.5 -80.11" stroke="none" stroke-width="0" fill="#364fc7" fill-rule="evenodd"></path><path d="M123.5 -80.11 C120.61 -75.49, 117.71 -70.86, 115.55 -67.4 M115.55 -67.4 C113.16 -71.08, 110.77 -74.76, 108.65 -78.03 M108.65 -78.03 C112.3 -78.55, 115.96 -79.06, 123.5 -80.11 M123.5 -80.11 C123.5 -80.11, 123.5 -80.11, 123.5 -80.11" stroke="#364fc7" stroke-width="1.5" fill="none"></path></g></g><g stroke-linecap="round"><g transform="translate(255.41890629827003 355.1958167233032) rotate(0 -54.91734077585761 -36.55624169498495)"><path d="M0 0 C-43.54 -28.99, -87.09 -57.97, -109.83 -73.11" stroke="#364fc7" stroke-width="1.5" fill="none" stroke-dasharray="1.5 7"></path></g><g transform="translate(255.41890629827003 355.1958167233032) rotate(0 -54.91734077585761 -36.55624169498495)"><path d="M-109.83 -73.11 L-95.01 -70.86 L-102.03 -60.3 L-109.83 -73.11" stroke="none" stroke-width="0" fill="#364fc7" fill-rule="evenodd"></path><path d="M-109.83 -73.11 C-103.96 -72.22, -98.08 -71.32, -95.01 -70.86 M-95.01 -70.86 C-97.2 -67.56, -99.4 -64.25, -102.03 -60.3 M-102.03 -60.3 C-104.31 -64.04, -106.58 -67.77, -109.83 -73.11 M-109.83 -73.11 C-109.83 -73.11, -109.83 -73.11, -109.83 -73.11" stroke="#364fc7" stroke-width="1.5" fill="none"></path></g></g><g stroke-linecap="round"><g transform="translate(476.1100303575372 176.0502556523624) rotate(0 -52.93048380636719 -41.940095398428724)"><path d="M0 0 C-34.76 -27.54, -69.53 -55.09, -105.86 -83.88 M0 0 C-34.58 -27.4, -69.16 -54.8, -105.86 -83.88" stroke="#2b8a3e" stroke-width="1" fill="none"></path></g><g transform="translate(476.1100303575372 176.0502556523624) rotate(0 -52.93048380636719 -41.940095398428724)"><path d="M-105.86 -83.88 L-91.27 -80.41 L-99.14 -70.47 L-105.86 -83.88" stroke="none" stroke-width="0" fill="#2b8a3e" fill-rule="evenodd"></path><path d="M-105.86 -83.88 C-101.07 -82.74, -96.28 -81.6, -91.27 -80.41 M-105.86 -83.88 C-101.09 -82.75, -96.33 -81.61, -91.27 -80.41 M-91.27 -80.41 C-93.06 -78.14, -94.86 -75.88, -99.14 -70.47 M-91.27 -80.41 C-93.76 -77.27, -96.24 -74.13, -99.14 -70.47 M-99.14 -70.47 C-100.7 -73.58, -102.26 -76.69, -105.86 -83.88 M-99.14 -70.47 C-101.29 -74.75, -103.43 -79.03, -105.86 -83.88 M-105.86 -83.88 C-105.86 -83.88, -105.86 -83.88, -105.86 -83.88 M-105.86 -83.88 C-105.86 -83.88, -105.86 -83.88, -105.86 -83.88" stroke="#2b8a3e" stroke-width="1" fill="none"></path></g></g><g stroke-linecap="round"><g transform="translate(168.38660045534232 174.11852179633252) rotate(0 48.557722714820386 -40.393518518518505)"><path d="M0 0 C35.02 -29.13, 70.03 -58.26, 97.12 -80.79 M0 0 C32.32 -26.89, 64.64 -53.77, 97.12 -80.79" stroke="#2b8a3e" stroke-width="1" fill="none"></path></g><g transform="translate(168.38660045534232 174.11852179633252) rotate(0 48.557722714820386 -40.393518518518505)"><path d="M97.12 -80.79 L90.72 -67.22 L82.61 -76.97 L97.12 -80.79" stroke="none" stroke-width="0" fill="#2b8a3e" fill-rule="evenodd"></path><path d="M97.12 -80.79 C94.81 -75.9, 92.5 -71, 90.72 -67.22 M97.12 -80.79 C94.99 -76.27, 92.86 -71.76, 90.72 -67.22 M90.72 -67.22 C88.9 -69.41, 87.07 -71.6, 82.61 -76.97 M90.72 -67.22 C87.72 -70.83, 84.71 -74.44, 82.61 -76.97 M82.61 -76.97 C88.3 -78.46, 93.99 -79.96, 97.12 -80.79 M82.61 -76.97 C86.35 -77.95, 90.09 -78.94, 97.12 -80.79 M97.12 -80.79 C97.12 -80.79, 97.12 -80.79, 97.12 -80.79 M97.12 -80.79 C97.12 -80.79, 97.12 -80.79, 97.12 -80.79" stroke="#2b8a3e" stroke-width="1" fill="none"></path></g></g><g transform="translate(543.7222222222222 477.9888916015624) rotate(0 47 11.5)"><text x="94" y="19" font-family="Helvetica, Segoe UI Emoji" font-size="20px" fill="#c92a2a" text-anchor="end" style="white-space: pre;" direction="ltr">Oracle DB</text></g><g stroke-linecap="round"><g transform="translate(569.0252085227586 198.58103960813042) rotate(0 20.411631016801493 22.23265301321075)" fill-rule="evenodd"><path d="M0 0 L-0.05 44.64 L2.11 46.5 L9.44 48.17 L21.83 48.69 L33.67 47.86 L39.96 45.88 L40.97 44.6 L40.92 -0.6 L40.65 -0.16 L35.87 -2.76 L19.84 -4.22 L5.21 -2.75 L1.75 -1.71 L0 0" stroke="none" stroke-width="0" fill="#82c91e" fill-rule="evenodd"></path><path d="M0 0 C0.02 6.66, 0.13 32.56, 0.14 39.98 C0.14 47.41, -0.32 43.45, 0.01 44.54 C0.34 45.62, 0.54 45.9, 2.11 46.5 C3.68 47.11, 6.15 47.8, 9.44 48.17 C12.73 48.53, 17.79 48.74, 21.83 48.69 C25.87 48.63, 30.65 48.33, 33.67 47.86 C36.69 47.39, 38.76 46.49, 39.96 45.88 C41.15 45.27, 40.67 45.1, 40.84 44.21 C41.01 43.32, 40.96 47.36, 40.97 40.55 C40.97 33.74, 40.92 10.14, 40.87 3.35 C40.82 -3.43, 41.12 0.75, 40.65 -0.16 C40.17 -1.07, 39.38 -1.61, 38.02 -2.12 C36.65 -2.64, 35.5 -2.91, 32.47 -3.26 C29.45 -3.61, 23.64 -4.15, 19.84 -4.22 C16.05 -4.28, 12.73 -4.06, 9.72 -3.65 C6.7 -3.23, 3.38 -2.32, 1.75 -1.71 C0.13 -1.11, 0.27 -0.31, -0.02 -0.02 C-0.31 0.26, 0 0, 0 0 M0 0 C0.02 6.66, 0.13 32.56, 0.14 39.98 C0.14 47.41, -0.32 43.45, 0.01 44.54 C0.34 45.62, 0.54 45.9, 2.11 46.5 C3.68 47.11, 6.15 47.8, 9.44 48.17 C12.73 48.53, 17.79 48.74, 21.83 48.69 C25.87 48.63, 30.65 48.33, 33.67 47.86 C36.69 47.39, 38.76 46.49, 39.96 45.88 C41.15 45.27, 40.67 45.1, 40.84 44.21 C41.01 43.32, 40.96 47.36, 40.97 40.55 C40.97 33.74, 40.92 10.14, 40.87 3.35 C40.82 -3.43, 41.12 0.75, 40.65 -0.16 C40.17 -1.07, 39.38 -1.61, 38.02 -2.12 C36.65 -2.64, 35.5 -2.91, 32.47 -3.26 C29.45 -3.61, 23.64 -4.15, 19.84 -4.22 C16.05 -4.28, 12.73 -4.06, 9.72 -3.65 C6.7 -3.23, 3.38 -2.32, 1.75 -1.71 C0.13 -1.11, 0.27 -0.31, -0.02 -0.02 C-0.31 0.26, 0 0, 0 0" stroke="#087f5b" stroke-width="1" fill="none"></path></g></g><g stroke-linecap="round"><g transform="translate(569.3445892817066 228.91792627870365) rotate(0 20.516060286331196 2.094554233805553)"><path d="M0 0 C0.18 0.3, 0.12 1.26, 1.08 1.81 C2.04 2.37, 3.93 2.93, 5.74 3.34 C7.55 3.74, 9.29 4.09, 11.95 4.26 C14.6 4.43, 18.16 4.43, 21.67 4.34 C25.18 4.26, 30.01 4.21, 33.01 3.76 C36 3.3, 38.29 2.28, 39.63 1.62 C40.97 0.96, 40.8 0.1, 41.03 -0.21 M0 0 C0.18 0.3, 0.12 1.26, 1.08 1.81 C2.04 2.37, 3.93 2.93, 5.74 3.34 C7.55 3.74, 9.29 4.09, 11.95 4.26 C14.6 4.43, 18.16 4.43, 21.67 4.34 C25.18 4.26, 30.01 4.21, 33.01 3.76 C36 3.3, 38.29 2.28, 39.63 1.62 C40.97 0.96, 40.8 0.1, 41.03 -0.21" stroke="#087f5b" stroke-width="1" fill="none"></path></g></g><g stroke-linecap="round"><g transform="translate(568.8363851580654 213.55010714682118) rotate(0 20.516060286331196 2.094554233805553)"><path d="M0 0 C0.18 0.3, 0.12 1.26, 1.08 1.81 C2.04 2.37, 3.93 2.93, 5.74 3.34 C7.55 3.74, 9.29 4.09, 11.95 4.26 C14.6 4.43, 18.16 4.43, 21.67 4.34 C25.18 4.26, 30.01 4.21, 33.01 3.76 C36 3.3, 38.29 2.28, 39.63 1.62 C40.97 0.96, 40.8 0.1, 41.03 -0.21 M0 0 C0.18 0.3, 0.12 1.26, 1.08 1.81 C2.04 2.37, 3.93 2.93, 5.74 3.34 C7.55 3.74, 9.29 4.09, 11.95 4.26 C14.6 4.43, 18.16 4.43, 21.67 4.34 C25.18 4.26, 30.01 4.21, 33.01 3.76 C36 3.3, 38.29 2.28, 39.63 1.62 C40.97 0.96, 40.8 0.1, 41.03 -0.21" stroke="#087f5b" stroke-width="1" fill="none"></path></g></g><g stroke-linecap="round" transform="translate(568.3155978379383 194.85238556272236) rotate(0 20.36334459347478 4.118333244298498)"><path d="M40.73 4.12 C40.73 4.36, 40.62 4.6, 40.42 4.83 C40.21 5.07, 39.9 5.3, 39.5 5.53 C39.1 5.75, 38.59 5.97, 38 6.18 C37.41 6.38, 36.72 6.58, 35.96 6.77 C35.2 6.95, 34.36 7.12, 33.45 7.27 C32.55 7.43, 31.57 7.57, 30.55 7.68 C29.52 7.8, 28.44 7.91, 27.33 7.99 C26.22 8.07, 25.06 8.13, 23.9 8.17 C22.74 8.22, 21.54 8.24, 20.36 8.24 C19.18 8.24, 17.99 8.22, 16.83 8.17 C15.67 8.13, 14.51 8.07, 13.4 7.99 C12.29 7.91, 11.2 7.8, 10.18 7.68 C9.16 7.57, 8.18 7.43, 7.27 7.27 C6.37 7.12, 5.52 6.95, 4.76 6.77 C4.01 6.58, 3.32 6.38, 2.73 6.18 C2.14 5.97, 1.63 5.75, 1.23 5.53 C0.82 5.3, 0.51 5.07, 0.31 4.83 C0.1 4.6, 0 4.36, 0 4.12 C0 3.88, 0.1 3.64, 0.31 3.4 C0.51 3.17, 0.82 2.93, 1.23 2.71 C1.63 2.49, 2.14 2.27, 2.73 2.06 C3.32 1.85, 4.01 1.65, 4.76 1.47 C5.52 1.29, 6.37 1.12, 7.27 0.96 C8.18 0.81, 9.16 0.67, 10.18 0.55 C11.2 0.43, 12.29 0.33, 13.4 0.25 C14.51 0.17, 15.67 0.1, 16.83 0.06 C17.99 0.02, 19.18 0, 20.36 0 C21.54 0, 22.74 0.02, 23.9 0.06 C25.06 0.1, 26.22 0.17, 27.33 0.25 C28.44 0.33, 29.52 0.43, 30.55 0.55 C31.57 0.67, 32.55 0.81, 33.45 0.96 C34.36 1.12, 35.2 1.29, 35.96 1.47 C36.72 1.65, 37.41 1.85, 38 2.06 C38.59 2.27, 39.1 2.49, 39.5 2.71 C39.9 2.93, 40.21 3.17, 40.42 3.4 C40.62 3.64, 40.68 4, 40.73 4.12 C40.78 4.24, 40.78 4, 40.73 4.12" stroke="none" stroke-width="0" fill="#fff"></path><path d="M40.73 4.12 C40.73 4.36, 40.62 4.6, 40.42 4.83 C40.21 5.07, 39.9 5.3, 39.5 5.53 C39.1 5.75, 38.59 5.97, 38 6.18 C37.41 6.38, 36.72 6.58, 35.96 6.77 C35.2 6.95, 34.36 7.12, 33.45 7.27 C32.55 7.43, 31.57 7.57, 30.55 7.68 C29.52 7.8, 28.44 7.91, 27.33 7.99 C26.22 8.07, 25.06 8.13, 23.9 8.17 C22.74 8.22, 21.54 8.24, 20.36 8.24 C19.18 8.24, 17.99 8.22, 16.83 8.17 C15.67 8.13, 14.51 8.07, 13.4 7.99 C12.29 7.91, 11.2 7.8, 10.18 7.68 C9.16 7.57, 8.18 7.43, 7.27 7.27 C6.37 7.12, 5.52 6.95, 4.76 6.77 C4.01 6.58, 3.32 6.38, 2.73 6.18 C2.14 5.97, 1.63 5.75, 1.23 5.53 C0.82 5.3, 0.51 5.07, 0.31 4.83 C0.1 4.6, 0 4.36, 0 4.12 C0 3.88, 0.1 3.64, 0.31 3.4 C0.51 3.17, 0.82 2.93, 1.23 2.71 C1.63 2.49, 2.14 2.27, 2.73 2.06 C3.32 1.85, 4.01 1.65, 4.76 1.47 C5.52 1.29, 6.37 1.12, 7.27 0.96 C8.18 0.81, 9.16 0.67, 10.18 0.55 C11.2 0.43, 12.29 0.33, 13.4 0.25 C14.51 0.17, 15.67 0.1, 16.83 0.06 C17.99 0.02, 19.18 0, 20.36 0 C21.54 0, 22.74 0.02, 23.9 0.06 C25.06 0.1, 26.22 0.17, 27.33 0.25 C28.44 0.33, 29.52 0.43, 30.55 0.55 C31.57 0.67, 32.55 0.81, 33.45 0.96 C34.36 1.12, 35.2 1.29, 35.96 1.47 C36.72 1.65, 37.41 1.85, 38 2.06 C38.59 2.27, 39.1 2.49, 39.5 2.71 C39.9 2.93, 40.21 3.17, 40.42 3.4 C40.62 3.64, 40.68 4, 40.73 4.12 C40.78 4.24, 40.78 4, 40.73 4.12" stroke="#087f5b" stroke-width="1" fill="none"></path></g><g stroke-linecap="round" transform="translate(601.5424073124544 206.27146788356538) rotate(0 2.9844433496452893 3.2390346394721803)"><path d="M5.97 3.24 C5.97 3.43, 5.95 3.62, 5.92 3.8 C5.89 3.99, 5.85 4.17, 5.79 4.35 C5.73 4.52, 5.66 4.7, 5.57 4.86 C5.48 5.02, 5.38 5.18, 5.27 5.32 C5.16 5.46, 5.04 5.6, 4.9 5.72 C4.77 5.84, 4.63 5.95, 4.48 6.04 C4.33 6.14, 4.17 6.22, 4.01 6.28 C3.84 6.35, 3.67 6.4, 3.5 6.43 C3.33 6.46, 3.16 6.48, 2.98 6.48 C2.81 6.48, 2.64 6.46, 2.47 6.43 C2.3 6.4, 2.13 6.35, 1.96 6.28 C1.8 6.22, 1.64 6.14, 1.49 6.04 C1.34 5.95, 1.2 5.84, 1.07 5.72 C0.93 5.6, 0.81 5.46, 0.7 5.32 C0.59 5.18, 0.49 5.02, 0.4 4.86 C0.31 4.7, 0.24 4.52, 0.18 4.35 C0.12 4.17, 0.08 3.99, 0.05 3.8 C0.02 3.62, 0 3.43, 0 3.24 C0 3.05, 0.02 2.86, 0.05 2.68 C0.08 2.49, 0.12 2.31, 0.18 2.13 C0.24 1.96, 0.31 1.78, 0.4 1.62 C0.49 1.46, 0.59 1.3, 0.7 1.16 C0.81 1.01, 0.93 0.88, 1.07 0.76 C1.2 0.64, 1.34 0.53, 1.49 0.43 C1.64 0.34, 1.8 0.26, 1.96 0.2 C2.13 0.13, 2.3 0.08, 2.47 0.05 C2.64 0.02, 2.81 0, 2.98 0 C3.16 0, 3.33 0.02, 3.5 0.05 C3.67 0.08, 3.84 0.13, 4.01 0.2 C4.17 0.26, 4.33 0.34, 4.48 0.43 C4.63 0.53, 4.77 0.64, 4.9 0.76 C5.04 0.88, 5.16 1.01, 5.27 1.16 C5.38 1.3, 5.48 1.46, 5.57 1.62 C5.66 1.78, 5.73 1.96, 5.79 2.13 C5.85 2.31, 5.89 2.49, 5.92 2.68 C5.95 2.86, 5.96 3.15, 5.97 3.24 C5.98 3.33, 5.98 3.15, 5.97 3.24" stroke="none" stroke-width="0" fill="#fff"></path><path d="M5.97 3.24 C5.97 3.43, 5.95 3.62, 5.92 3.8 C5.89 3.99, 5.85 4.17, 5.79 4.35 C5.73 4.52, 5.66 4.7, 5.57 4.86 C5.48 5.02, 5.38 5.18, 5.27 5.32 C5.16 5.46, 5.04 5.6, 4.9 5.72 C4.77 5.84, 4.63 5.95, 4.48 6.04 C4.33 6.14, 4.17 6.22, 4.01 6.28 C3.84 6.35, 3.67 6.4, 3.5 6.43 C3.33 6.46, 3.16 6.48, 2.98 6.48 C2.81 6.48, 2.64 6.46, 2.47 6.43 C2.3 6.4, 2.13 6.35, 1.96 6.28 C1.8 6.22, 1.64 6.14, 1.49 6.04 C1.34 5.95, 1.2 5.84, 1.07 5.72 C0.93 5.6, 0.81 5.46, 0.7 5.32 C0.59 5.18, 0.49 5.02, 0.4 4.86 C0.31 4.7, 0.24 4.52, 0.18 4.35 C0.12 4.17, 0.08 3.99, 0.05 3.8 C0.02 3.62, 0 3.43, 0 3.24 C0 3.05, 0.02 2.86, 0.05 2.68 C0.08 2.49, 0.12 2.31, 0.18 2.13 C0.24 1.96, 0.31 1.78, 0.4 1.62 C0.49 1.46, 0.59 1.3, 0.7 1.16 C0.81 1.01, 0.93 0.88, 1.07 0.76 C1.2 0.64, 1.34 0.53, 1.49 0.43 C1.64 0.34, 1.8 0.26, 1.96 0.2 C2.13 0.13, 2.3 0.08, 2.47 0.05 C2.64 0.02, 2.81 0, 2.98 0 C3.16 0, 3.33 0.02, 3.5 0.05 C3.67 0.08, 3.84 0.13, 4.01 0.2 C4.17 0.26, 4.33 0.34, 4.48 0.43 C4.63 0.53, 4.77 0.64, 4.9 0.76 C5.04 0.88, 5.16 1.01, 5.27 1.16 C5.38 1.3, 5.48 1.46, 5.57 1.62 C5.66 1.78, 5.73 1.96, 5.79 2.13 C5.85 2.31, 5.89 2.49, 5.92 2.68 C5.95 2.86, 5.96 3.15, 5.97 3.24 C5.98 3.33, 5.98 3.15, 5.97 3.24" stroke="#087f5b" stroke-width="1" fill="none"></path></g><g stroke-linecap="round" transform="translate(601.5424073124544 220.49081776944683) rotate(0 2.9844433496452893 3.2390346394721803)"><path d="M5.97 3.24 C5.97 3.43, 5.95 3.62, 5.92 3.8 C5.89 3.99, 5.85 4.17, 5.79 4.35 C5.73 4.52, 5.66 4.7, 5.57 4.86 C5.48 5.02, 5.38 5.18, 5.27 5.32 C5.16 5.46, 5.04 5.6, 4.9 5.72 C4.77 5.84, 4.63 5.95, 4.48 6.04 C4.33 6.14, 4.17 6.22, 4.01 6.28 C3.84 6.35, 3.67 6.4, 3.5 6.43 C3.33 6.46, 3.16 6.48, 2.98 6.48 C2.81 6.48, 2.64 6.46, 2.47 6.43 C2.3 6.4, 2.13 6.35, 1.96 6.28 C1.8 6.22, 1.64 6.14, 1.49 6.04 C1.34 5.95, 1.2 5.84, 1.07 5.72 C0.93 5.6, 0.81 5.46, 0.7 5.32 C0.59 5.18, 0.49 5.02, 0.4 4.86 C0.31 4.7, 0.24 4.52, 0.18 4.35 C0.12 4.17, 0.08 3.99, 0.05 3.8 C0.02 3.62, 0 3.43, 0 3.24 C0 3.05, 0.02 2.86, 0.05 2.68 C0.08 2.49, 0.12 2.31, 0.18 2.13 C0.24 1.96, 0.31 1.78, 0.4 1.62 C0.49 1.46, 0.59 1.3, 0.7 1.16 C0.81 1.01, 0.93 0.88, 1.07 0.76 C1.2 0.64, 1.34 0.53, 1.49 0.43 C1.64 0.34, 1.8 0.26, 1.96 0.2 C2.13 0.13, 2.3 0.08, 2.47 0.05 C2.64 0.02, 2.81 0, 2.98 0 C3.16 0, 3.33 0.02, 3.5 0.05 C3.67 0.08, 3.84 0.13, 4.01 0.2 C4.17 0.26, 4.33 0.34, 4.48 0.43 C4.63 0.53, 4.77 0.64, 4.9 0.76 C5.04 0.88, 5.16 1.01, 5.27 1.16 C5.38 1.3, 5.48 1.46, 5.57 1.62 C5.66 1.78, 5.73 1.96, 5.79 2.13 C5.85 2.31, 5.89 2.49, 5.92 2.68 C5.95 2.86, 5.96 3.15, 5.97 3.24 C5.98 3.33, 5.98 3.15, 5.97 3.24" stroke="none" stroke-width="0" fill="#fff"></path><path d="M5.97 3.24 C5.97 3.43, 5.95 3.62, 5.92 3.8 C5.89 3.99, 5.85 4.17, 5.79 4.35 C5.73 4.52, 5.66 4.7, 5.57 4.86 C5.48 5.02, 5.38 5.18, 5.27 5.32 C5.16 5.46, 5.04 5.6, 4.9 5.72 C4.77 5.84, 4.63 5.95, 4.48 6.04 C4.33 6.14, 4.17 6.22, 4.01 6.28 C3.84 6.35, 3.67 6.4, 3.5 6.43 C3.33 6.46, 3.16 6.48, 2.98 6.48 C2.81 6.48, 2.64 6.46, 2.47 6.43 C2.3 6.4, 2.13 6.35, 1.96 6.28 C1.8 6.22, 1.64 6.14, 1.49 6.04 C1.34 5.95, 1.2 5.84, 1.07 5.72 C0.93 5.6, 0.81 5.46, 0.7 5.32 C0.59 5.18, 0.49 5.02, 0.4 4.86 C0.31 4.7, 0.24 4.52, 0.18 4.35 C0.12 4.17, 0.08 3.99, 0.05 3.8 C0.02 3.62, 0 3.43, 0 3.24 C0 3.05, 0.02 2.86, 0.05 2.68 C0.08 2.49, 0.12 2.31, 0.18 2.13 C0.24 1.96, 0.31 1.78, 0.4 1.62 C0.49 1.46, 0.59 1.3, 0.7 1.16 C0.81 1.01, 0.93 0.88, 1.07 0.76 C1.2 0.64, 1.34 0.53, 1.49 0.43 C1.64 0.34, 1.8 0.26, 1.96 0.2 C2.13 0.13, 2.3 0.08, 2.47 0.05 C2.64 0.02, 2.81 0, 2.98 0 C3.16 0, 3.33 0.02, 3.5 0.05 C3.67 0.08, 3.84 0.13, 4.01 0.2 C4.17 0.26, 4.33 0.34, 4.48 0.43 C4.63 0.53, 4.77 0.64, 4.9 0.76 C5.04 0.88, 5.16 1.01, 5.27 1.16 C5.38 1.3, 5.48 1.46, 5.57 1.62 C5.66 1.78, 5.73 1.96, 5.79 2.13 C5.85 2.31, 5.89 2.49, 5.92 2.68 C5.95 2.86, 5.96 3.15, 5.97 3.24 C5.98 3.33, 5.98 3.15, 5.97 3.24" stroke="#087f5b" stroke-width="1" fill="none"></path></g><g stroke-linecap="round" transform="translate(601.5424073124544 235.94536176003862) rotate(0 2.9844433496452893 3.2390346394721803)"><path d="M5.97 3.24 C5.97 3.43, 5.95 3.62, 5.92 3.8 C5.89 3.99, 5.85 4.17, 5.79 4.35 C5.73 4.52, 5.66 4.7, 5.57 4.86 C5.48 5.02, 5.38 5.18, 5.27 5.32 C5.16 5.46, 5.04 5.6, 4.9 5.72 C4.77 5.84, 4.63 5.95, 4.48 6.04 C4.33 6.14, 4.17 6.22, 4.01 6.28 C3.84 6.35, 3.67 6.4, 3.5 6.43 C3.33 6.46, 3.16 6.48, 2.98 6.48 C2.81 6.48, 2.64 6.46, 2.47 6.43 C2.3 6.4, 2.13 6.35, 1.96 6.28 C1.8 6.22, 1.64 6.14, 1.49 6.04 C1.34 5.95, 1.2 5.84, 1.07 5.72 C0.93 5.6, 0.81 5.46, 0.7 5.32 C0.59 5.18, 0.49 5.02, 0.4 4.86 C0.31 4.7, 0.24 4.52, 0.18 4.35 C0.12 4.17, 0.08 3.99, 0.05 3.8 C0.02 3.62, 0 3.43, 0 3.24 C0 3.05, 0.02 2.86, 0.05 2.68 C0.08 2.49, 0.12 2.31, 0.18 2.13 C0.24 1.96, 0.31 1.78, 0.4 1.62 C0.49 1.46, 0.59 1.3, 0.7 1.16 C0.81 1.01, 0.93 0.88, 1.07 0.76 C1.2 0.64, 1.34 0.53, 1.49 0.43 C1.64 0.34, 1.8 0.26, 1.96 0.2 C2.13 0.13, 2.3 0.08, 2.47 0.05 C2.64 0.02, 2.81 0, 2.98 0 C3.16 0, 3.33 0.02, 3.5 0.05 C3.67 0.08, 3.84 0.13, 4.01 0.2 C4.17 0.26, 4.33 0.34, 4.48 0.43 C4.63 0.53, 4.77 0.64, 4.9 0.76 C5.04 0.88, 5.16 1.01, 5.27 1.16 C5.38 1.3, 5.48 1.46, 5.57 1.62 C5.66 1.78, 5.73 1.96, 5.79 2.13 C5.85 2.31, 5.89 2.49, 5.92 2.68 C5.95 2.86, 5.96 3.15, 5.97 3.24 C5.98 3.33, 5.98 3.15, 5.97 3.24" stroke="none" stroke-width="0" fill="#fff"></path><path d="M5.97 3.24 C5.97 3.43, 5.95 3.62, 5.92 3.8 C5.89 3.99, 5.85 4.17, 5.79 4.35 C5.73 4.52, 5.66 4.7, 5.57 4.86 C5.48 5.02, 5.38 5.18, 5.27 5.32 C5.16 5.46, 5.04 5.6, 4.9 5.72 C4.77 5.84, 4.63 5.95, 4.48 6.04 C4.33 6.14, 4.17 6.22, 4.01 6.28 C3.84 6.35, 3.67 6.4, 3.5 6.43 C3.33 6.46, 3.16 6.48, 2.98 6.48 C2.81 6.48, 2.64 6.46, 2.47 6.43 C2.3 6.4, 2.13 6.35, 1.96 6.28 C1.8 6.22, 1.64 6.14, 1.49 6.04 C1.34 5.95, 1.2 5.84, 1.07 5.72 C0.93 5.6, 0.81 5.46, 0.7 5.32 C0.59 5.18, 0.49 5.02, 0.4 4.86 C0.31 4.7, 0.24 4.52, 0.18 4.35 C0.12 4.17, 0.08 3.99, 0.05 3.8 C0.02 3.62, 0 3.43, 0 3.24 C0 3.05, 0.02 2.86, 0.05 2.68 C0.08 2.49, 0.12 2.31, 0.18 2.13 C0.24 1.96, 0.31 1.78, 0.4 1.62 C0.49 1.46, 0.59 1.3, 0.7 1.16 C0.81 1.01, 0.93 0.88, 1.07 0.76 C1.2 0.64, 1.34 0.53, 1.49 0.43 C1.64 0.34, 1.8 0.26, 1.96 0.2 C2.13 0.13, 2.3 0.08, 2.47 0.05 C2.64 0.02, 2.81 0, 2.98 0 C3.16 0, 3.33 0.02, 3.5 0.05 C3.67 0.08, 3.84 0.13, 4.01 0.2 C4.17 0.26, 4.33 0.34, 4.48 0.43 C4.63 0.53, 4.77 0.64, 4.9 0.76 C5.04 0.88, 5.16 1.01, 5.27 1.16 C5.38 1.3, 5.48 1.46, 5.57 1.62 C5.66 1.78, 5.73 1.96, 5.79 2.13 C5.85 2.31, 5.89 2.49, 5.92 2.68 C5.95 2.86, 5.96 3.15, 5.97 3.24 C5.98 3.33, 5.98 3.15, 5.97 3.24" stroke="#087f5b" stroke-width="1" fill="none"></path></g><g stroke-linecap="round"><g transform="translate(221.33290083045097 196.7503039966204) rotate(0 20.411631016801493 22.23265301321075)" fill-rule="evenodd"><path d="M0 0 L-0.05 44.64 L2.11 46.5 L9.44 48.17 L21.83 48.69 L33.67 47.86 L39.96 45.88 L40.97 44.6 L40.92 -0.6 L40.65 -0.16 L35.87 -2.76 L19.84 -4.22 L5.21 -2.75 L1.75 -1.71 L0 0" stroke="none" stroke-width="0" fill="#82c91e" fill-rule="evenodd"></path><path d="M0 0 C0.02 6.66, 0.13 32.56, 0.14 39.98 C0.14 47.41, -0.32 43.45, 0.01 44.54 C0.34 45.62, 0.54 45.9, 2.11 46.5 C3.68 47.11, 6.15 47.8, 9.44 48.17 C12.73 48.53, 17.79 48.74, 21.83 48.69 C25.87 48.63, 30.65 48.33, 33.67 47.86 C36.69 47.39, 38.76 46.49, 39.96 45.88 C41.15 45.27, 40.67 45.1, 40.84 44.21 C41.01 43.32, 40.96 47.36, 40.97 40.55 C40.97 33.74, 40.92 10.14, 40.87 3.35 C40.82 -3.43, 41.12 0.75, 40.65 -0.16 C40.17 -1.07, 39.38 -1.61, 38.02 -2.12 C36.65 -2.64, 35.5 -2.91, 32.47 -3.26 C29.45 -3.61, 23.64 -4.15, 19.84 -4.22 C16.05 -4.28, 12.73 -4.06, 9.72 -3.65 C6.7 -3.23, 3.38 -2.32, 1.75 -1.71 C0.13 -1.11, 0.27 -0.31, -0.02 -0.02 C-0.31 0.26, 0 0, 0 0 M0 0 C0.02 6.66, 0.13 32.56, 0.14 39.98 C0.14 47.41, -0.32 43.45, 0.01 44.54 C0.34 45.62, 0.54 45.9, 2.11 46.5 C3.68 47.11, 6.15 47.8, 9.44 48.17 C12.73 48.53, 17.79 48.74, 21.83 48.69 C25.87 48.63, 30.65 48.33, 33.67 47.86 C36.69 47.39, 38.76 46.49, 39.96 45.88 C41.15 45.27, 40.67 45.1, 40.84 44.21 C41.01 43.32, 40.96 47.36, 40.97 40.55 C40.97 33.74, 40.92 10.14, 40.87 3.35 C40.82 -3.43, 41.12 0.75, 40.65 -0.16 C40.17 -1.07, 39.38 -1.61, 38.02 -2.12 C36.65 -2.64, 35.5 -2.91, 32.47 -3.26 C29.45 -3.61, 23.64 -4.15, 19.84 -4.22 C16.05 -4.28, 12.73 -4.06, 9.72 -3.65 C6.7 -3.23, 3.38 -2.32, 1.75 -1.71 C0.13 -1.11, 0.27 -0.31, -0.02 -0.02 C-0.31 0.26, 0 0, 0 0" stroke="#087f5b" stroke-width="1" fill="none"></path></g></g><g stroke-linecap="round"><g transform="translate(221.65228158939897 227.08719066719362) rotate(0 20.516060286331196 2.094554233805553)"><path d="M0 0 C0.18 0.3, 0.12 1.26, 1.08 1.81 C2.04 2.37, 3.93 2.93, 5.74 3.34 C7.55 3.74, 9.29 4.09, 11.95 4.26 C14.6 4.43, 18.16 4.43, 21.67 4.34 C25.18 4.26, 30.01 4.21, 33.01 3.76 C36 3.3, 38.29 2.28, 39.63 1.62 C40.97 0.96, 40.8 0.1, 41.03 -0.21 M0 0 C0.18 0.3, 0.12 1.26, 1.08 1.81 C2.04 2.37, 3.93 2.93, 5.74 3.34 C7.55 3.74, 9.29 4.09, 11.95 4.26 C14.6 4.43, 18.16 4.43, 21.67 4.34 C25.18 4.26, 30.01 4.21, 33.01 3.76 C36 3.3, 38.29 2.28, 39.63 1.62 C40.97 0.96, 40.8 0.1, 41.03 -0.21" stroke="#087f5b" stroke-width="1" fill="none"></path></g></g><g stroke-linecap="round"><g transform="translate(221.14407746575773 211.71937153531115) rotate(0 20.516060286331196 2.094554233805553)"><path d="M0 0 C0.18 0.3, 0.12 1.26, 1.08 1.81 C2.04 2.37, 3.93 2.93, 5.74 3.34 C7.55 3.74, 9.29 4.09, 11.95 4.26 C14.6 4.43, 18.16 4.43, 21.67 4.34 C25.18 4.26, 30.01 4.21, 33.01 3.76 C36 3.3, 38.29 2.28, 39.63 1.62 C40.97 0.96, 40.8 0.1, 41.03 -0.21 M0 0 C0.18 0.3, 0.12 1.26, 1.08 1.81 C2.04 2.37, 3.93 2.93, 5.74 3.34 C7.55 3.74, 9.29 4.09, 11.95 4.26 C14.6 4.43, 18.16 4.43, 21.67 4.34 C25.18 4.26, 30.01 4.21, 33.01 3.76 C36 3.3, 38.29 2.28, 39.63 1.62 C40.97 0.96, 40.8 0.1, 41.03 -0.21" stroke="#087f5b" stroke-width="1" fill="none"></path></g></g><g stroke-linecap="round" transform="translate(220.62329014563068 193.02164995121228) rotate(0 20.36334459347478 4.118333244298498)"><path d="M40.73 4.12 C40.73 4.36, 40.62 4.6, 40.42 4.83 C40.21 5.07, 39.9 5.3, 39.5 5.53 C39.1 5.75, 38.59 5.97, 38 6.18 C37.41 6.38, 36.72 6.58, 35.96 6.77 C35.2 6.95, 34.36 7.12, 33.45 7.27 C32.55 7.43, 31.57 7.57, 30.55 7.68 C29.52 7.8, 28.44 7.91, 27.33 7.99 C26.22 8.07, 25.06 8.13, 23.9 8.17 C22.74 8.22, 21.54 8.24, 20.36 8.24 C19.18 8.24, 17.99 8.22, 16.83 8.17 C15.67 8.13, 14.51 8.07, 13.4 7.99 C12.29 7.91, 11.2 7.8, 10.18 7.68 C9.16 7.57, 8.18 7.43, 7.27 7.27 C6.37 7.12, 5.52 6.95, 4.76 6.77 C4.01 6.58, 3.32 6.38, 2.73 6.18 C2.14 5.97, 1.63 5.75, 1.23 5.53 C0.82 5.3, 0.51 5.07, 0.31 4.83 C0.1 4.6, 0 4.36, 0 4.12 C0 3.88, 0.1 3.64, 0.31 3.4 C0.51 3.17, 0.82 2.93, 1.23 2.71 C1.63 2.49, 2.14 2.27, 2.73 2.06 C3.32 1.85, 4.01 1.65, 4.76 1.47 C5.52 1.29, 6.37 1.12, 7.27 0.96 C8.18 0.81, 9.16 0.67, 10.18 0.55 C11.2 0.43, 12.29 0.33, 13.4 0.25 C14.51 0.17, 15.67 0.1, 16.83 0.06 C17.99 0.02, 19.18 0, 20.36 0 C21.54 0, 22.74 0.02, 23.9 0.06 C25.06 0.1, 26.22 0.17, 27.33 0.25 C28.44 0.33, 29.52 0.43, 30.55 0.55 C31.57 0.67, 32.55 0.81, 33.45 0.96 C34.36 1.12, 35.2 1.29, 35.96 1.47 C36.72 1.65, 37.41 1.85, 38 2.06 C38.59 2.27, 39.1 2.49, 39.5 2.71 C39.9 2.93, 40.21 3.17, 40.42 3.4 C40.62 3.64, 40.68 4, 40.73 4.12 C40.78 4.24, 40.78 4, 40.73 4.12" stroke="none" stroke-width="0" fill="#fff"></path><path d="M40.73 4.12 C40.73 4.36, 40.62 4.6, 40.42 4.83 C40.21 5.07, 39.9 5.3, 39.5 5.53 C39.1 5.75, 38.59 5.97, 38 6.18 C37.41 6.38, 36.72 6.58, 35.96 6.77 C35.2 6.95, 34.36 7.12, 33.45 7.27 C32.55 7.43, 31.57 7.57, 30.55 7.68 C29.52 7.8, 28.44 7.91, 27.33 7.99 C26.22 8.07, 25.06 8.13, 23.9 8.17 C22.74 8.22, 21.54 8.24, 20.36 8.24 C19.18 8.24, 17.99 8.22, 16.83 8.17 C15.67 8.13, 14.51 8.07, 13.4 7.99 C12.29 7.91, 11.2 7.8, 10.18 7.68 C9.16 7.57, 8.18 7.43, 7.27 7.27 C6.37 7.12, 5.52 6.95, 4.76 6.77 C4.01 6.58, 3.32 6.38, 2.73 6.18 C2.14 5.97, 1.63 5.75, 1.23 5.53 C0.82 5.3, 0.51 5.07, 0.31 4.83 C0.1 4.6, 0 4.36, 0 4.12 C0 3.88, 0.1 3.64, 0.31 3.4 C0.51 3.17, 0.82 2.93, 1.23 2.71 C1.63 2.49, 2.14 2.27, 2.73 2.06 C3.32 1.85, 4.01 1.65, 4.76 1.47 C5.52 1.29, 6.37 1.12, 7.27 0.96 C8.18 0.81, 9.16 0.67, 10.18 0.55 C11.2 0.43, 12.29 0.33, 13.4 0.25 C14.51 0.17, 15.67 0.1, 16.83 0.06 C17.99 0.02, 19.18 0, 20.36 0 C21.54 0, 22.74 0.02, 23.9 0.06 C25.06 0.1, 26.22 0.17, 27.33 0.25 C28.44 0.33, 29.52 0.43, 30.55 0.55 C31.57 0.67, 32.55 0.81, 33.45 0.96 C34.36 1.12, 35.2 1.29, 35.96 1.47 C36.72 1.65, 37.41 1.85, 38 2.06 C38.59 2.27, 39.1 2.49, 39.5 2.71 C39.9 2.93, 40.21 3.17, 40.42 3.4 C40.62 3.64, 40.68 4, 40.73 4.12 C40.78 4.24, 40.78 4, 40.73 4.12" stroke="#087f5b" stroke-width="1" fill="none"></path></g><g stroke-linecap="round" transform="translate(253.8500996201468 204.4407322720553) rotate(0 2.9844433496452893 3.2390346394721803)"><path d="M5.97 3.24 C5.97 3.43, 5.95 3.62, 5.92 3.8 C5.89 3.99, 5.85 4.17, 5.79 4.35 C5.73 4.52, 5.66 4.7, 5.57 4.86 C5.48 5.02, 5.38 5.18, 5.27 5.32 C5.16 5.46, 5.04 5.6, 4.9 5.72 C4.77 5.84, 4.63 5.95, 4.48 6.04 C4.33 6.14, 4.17 6.22, 4.01 6.28 C3.84 6.35, 3.67 6.4, 3.5 6.43 C3.33 6.46, 3.16 6.48, 2.98 6.48 C2.81 6.48, 2.64 6.46, 2.47 6.43 C2.3 6.4, 2.13 6.35, 1.96 6.28 C1.8 6.22, 1.64 6.14, 1.49 6.04 C1.34 5.95, 1.2 5.84, 1.07 5.72 C0.93 5.6, 0.81 5.46, 0.7 5.32 C0.59 5.18, 0.49 5.02, 0.4 4.86 C0.31 4.7, 0.24 4.52, 0.18 4.35 C0.12 4.17, 0.08 3.99, 0.05 3.8 C0.02 3.62, 0 3.43, 0 3.24 C0 3.05, 0.02 2.86, 0.05 2.68 C0.08 2.49, 0.12 2.31, 0.18 2.13 C0.24 1.96, 0.31 1.78, 0.4 1.62 C0.49 1.46, 0.59 1.3, 0.7 1.16 C0.81 1.01, 0.93 0.88, 1.07 0.76 C1.2 0.64, 1.34 0.53, 1.49 0.43 C1.64 0.34, 1.8 0.26, 1.96 0.2 C2.13 0.13, 2.3 0.08, 2.47 0.05 C2.64 0.02, 2.81 0, 2.98 0 C3.16 0, 3.33 0.02, 3.5 0.05 C3.67 0.08, 3.84 0.13, 4.01 0.2 C4.17 0.26, 4.33 0.34, 4.48 0.43 C4.63 0.53, 4.77 0.64, 4.9 0.76 C5.04 0.88, 5.16 1.01, 5.27 1.16 C5.38 1.3, 5.48 1.46, 5.57 1.62 C5.66 1.78, 5.73 1.96, 5.79 2.13 C5.85 2.31, 5.89 2.49, 5.92 2.68 C5.95 2.86, 5.96 3.15, 5.97 3.24 C5.98 3.33, 5.98 3.15, 5.97 3.24" stroke="none" stroke-width="0" fill="#fff"></path><path d="M5.97 3.24 C5.97 3.43, 5.95 3.62, 5.92 3.8 C5.89 3.99, 5.85 4.17, 5.79 4.35 C5.73 4.52, 5.66 4.7, 5.57 4.86 C5.48 5.02, 5.38 5.18, 5.27 5.32 C5.16 5.46, 5.04 5.6, 4.9 5.72 C4.77 5.84, 4.63 5.95, 4.48 6.04 C4.33 6.14, 4.17 6.22, 4.01 6.28 C3.84 6.35, 3.67 6.4, 3.5 6.43 C3.33 6.46, 3.16 6.48, 2.98 6.48 C2.81 6.48, 2.64 6.46, 2.47 6.43 C2.3 6.4, 2.13 6.35, 1.96 6.28 C1.8 6.22, 1.64 6.14, 1.49 6.04 C1.34 5.95, 1.2 5.84, 1.07 5.72 C0.93 5.6, 0.81 5.46, 0.7 5.32 C0.59 5.18, 0.49 5.02, 0.4 4.86 C0.31 4.7, 0.24 4.52, 0.18 4.35 C0.12 4.17, 0.08 3.99, 0.05 3.8 C0.02 3.62, 0 3.43, 0 3.24 C0 3.05, 0.02 2.86, 0.05 2.68 C0.08 2.49, 0.12 2.31, 0.18 2.13 C0.24 1.96, 0.31 1.78, 0.4 1.62 C0.49 1.46, 0.59 1.3, 0.7 1.16 C0.81 1.01, 0.93 0.88, 1.07 0.76 C1.2 0.64, 1.34 0.53, 1.49 0.43 C1.64 0.34, 1.8 0.26, 1.96 0.2 C2.13 0.13, 2.3 0.08, 2.47 0.05 C2.64 0.02, 2.81 0, 2.98 0 C3.16 0, 3.33 0.02, 3.5 0.05 C3.67 0.08, 3.84 0.13, 4.01 0.2 C4.17 0.26, 4.33 0.34, 4.48 0.43 C4.63 0.53, 4.77 0.64, 4.9 0.76 C5.04 0.88, 5.16 1.01, 5.27 1.16 C5.38 1.3, 5.48 1.46, 5.57 1.62 C5.66 1.78, 5.73 1.96, 5.79 2.13 C5.85 2.31, 5.89 2.49, 5.92 2.68 C5.95 2.86, 5.96 3.15, 5.97 3.24 C5.98 3.33, 5.98 3.15, 5.97 3.24" stroke="#087f5b" stroke-width="1" fill="none"></path></g><g stroke-linecap="round" transform="translate(253.8500996201468 218.66008215793676) rotate(0 2.9844433496452893 3.2390346394721803)"><path d="M5.97 3.24 C5.97 3.43, 5.95 3.62, 5.92 3.8 C5.89 3.99, 5.85 4.17, 5.79 4.35 C5.73 4.52, 5.66 4.7, 5.57 4.86 C5.48 5.02, 5.38 5.18, 5.27 5.32 C5.16 5.46, 5.04 5.6, 4.9 5.72 C4.77 5.84, 4.63 5.95, 4.48 6.04 C4.33 6.14, 4.17 6.22, 4.01 6.28 C3.84 6.35, 3.67 6.4, 3.5 6.43 C3.33 6.46, 3.16 6.48, 2.98 6.48 C2.81 6.48, 2.64 6.46, 2.47 6.43 C2.3 6.4, 2.13 6.35, 1.96 6.28 C1.8 6.22, 1.64 6.14, 1.49 6.04 C1.34 5.95, 1.2 5.84, 1.07 5.72 C0.93 5.6, 0.81 5.46, 0.7 5.32 C0.59 5.18, 0.49 5.02, 0.4 4.86 C0.31 4.7, 0.24 4.52, 0.18 4.35 C0.12 4.17, 0.08 3.99, 0.05 3.8 C0.02 3.62, 0 3.43, 0 3.24 C0 3.05, 0.02 2.86, 0.05 2.68 C0.08 2.49, 0.12 2.31, 0.18 2.13 C0.24 1.96, 0.31 1.78, 0.4 1.62 C0.49 1.46, 0.59 1.3, 0.7 1.16 C0.81 1.01, 0.93 0.88, 1.07 0.76 C1.2 0.64, 1.34 0.53, 1.49 0.43 C1.64 0.34, 1.8 0.26, 1.96 0.2 C2.13 0.13, 2.3 0.08, 2.47 0.05 C2.64 0.02, 2.81 0, 2.98 0 C3.16 0, 3.33 0.02, 3.5 0.05 C3.67 0.08, 3.84 0.13, 4.01 0.2 C4.17 0.26, 4.33 0.34, 4.48 0.43 C4.63 0.53, 4.77 0.64, 4.9 0.76 C5.04 0.88, 5.16 1.01, 5.27 1.16 C5.38 1.3, 5.48 1.46, 5.57 1.62 C5.66 1.78, 5.73 1.96, 5.79 2.13 C5.85 2.31, 5.89 2.49, 5.92 2.68 C5.95 2.86, 5.96 3.15, 5.97 3.24 C5.98 3.33, 5.98 3.15, 5.97 3.24" stroke="none" stroke-width="0" fill="#fff"></path><path d="M5.97 3.24 C5.97 3.43, 5.95 3.62, 5.92 3.8 C5.89 3.99, 5.85 4.17, 5.79 4.35 C5.73 4.52, 5.66 4.7, 5.57 4.86 C5.48 5.02, 5.38 5.18, 5.27 5.32 C5.16 5.46, 5.04 5.6, 4.9 5.72 C4.77 5.84, 4.63 5.95, 4.48 6.04 C4.33 6.14, 4.17 6.22, 4.01 6.28 C3.84 6.35, 3.67 6.4, 3.5 6.43 C3.33 6.46, 3.16 6.48, 2.98 6.48 C2.81 6.48, 2.64 6.46, 2.47 6.43 C2.3 6.4, 2.13 6.35, 1.96 6.28 C1.8 6.22, 1.64 6.14, 1.49 6.04 C1.34 5.95, 1.2 5.84, 1.07 5.72 C0.93 5.6, 0.81 5.46, 0.7 5.32 C0.59 5.18, 0.49 5.02, 0.4 4.86 C0.31 4.7, 0.24 4.52, 0.18 4.35 C0.12 4.17, 0.08 3.99, 0.05 3.8 C0.02 3.62, 0 3.43, 0 3.24 C0 3.05, 0.02 2.86, 0.05 2.68 C0.08 2.49, 0.12 2.31, 0.18 2.13 C0.24 1.96, 0.31 1.78, 0.4 1.62 C0.49 1.46, 0.59 1.3, 0.7 1.16 C0.81 1.01, 0.93 0.88, 1.07 0.76 C1.2 0.64, 1.34 0.53, 1.49 0.43 C1.64 0.34, 1.8 0.26, 1.96 0.2 C2.13 0.13, 2.3 0.08, 2.47 0.05 C2.64 0.02, 2.81 0, 2.98 0 C3.16 0, 3.33 0.02, 3.5 0.05 C3.67 0.08, 3.84 0.13, 4.01 0.2 C4.17 0.26, 4.33 0.34, 4.48 0.43 C4.63 0.53, 4.77 0.64, 4.9 0.76 C5.04 0.88, 5.16 1.01, 5.27 1.16 C5.38 1.3, 5.48 1.46, 5.57 1.62 C5.66 1.78, 5.73 1.96, 5.79 2.13 C5.85 2.31, 5.89 2.49, 5.92 2.68 C5.95 2.86, 5.96 3.15, 5.97 3.24 C5.98 3.33, 5.98 3.15, 5.97 3.24" stroke="#087f5b" stroke-width="1" fill="none"></path></g><g stroke-linecap="round" transform="translate(253.8500996201468 234.11462614852866) rotate(0 2.9844433496452893 3.2390346394721803)"><path d="M5.97 3.24 C5.97 3.43, 5.95 3.62, 5.92 3.8 C5.89 3.99, 5.85 4.17, 5.79 4.35 C5.73 4.52, 5.66 4.7, 5.57 4.86 C5.48 5.02, 5.38 5.18, 5.27 5.32 C5.16 5.46, 5.04 5.6, 4.9 5.72 C4.77 5.84, 4.63 5.95, 4.48 6.04 C4.33 6.14, 4.17 6.22, 4.01 6.28 C3.84 6.35, 3.67 6.4, 3.5 6.43 C3.33 6.46, 3.16 6.48, 2.98 6.48 C2.81 6.48, 2.64 6.46, 2.47 6.43 C2.3 6.4, 2.13 6.35, 1.96 6.28 C1.8 6.22, 1.64 6.14, 1.49 6.04 C1.34 5.95, 1.2 5.84, 1.07 5.72 C0.93 5.6, 0.81 5.46, 0.7 5.32 C0.59 5.18, 0.49 5.02, 0.4 4.86 C0.31 4.7, 0.24 4.52, 0.18 4.35 C0.12 4.17, 0.08 3.99, 0.05 3.8 C0.02 3.62, 0 3.43, 0 3.24 C0 3.05, 0.02 2.86, 0.05 2.68 C0.08 2.49, 0.12 2.31, 0.18 2.13 C0.24 1.96, 0.31 1.78, 0.4 1.62 C0.49 1.46, 0.59 1.3, 0.7 1.16 C0.81 1.01, 0.93 0.88, 1.07 0.76 C1.2 0.64, 1.34 0.53, 1.49 0.43 C1.64 0.34, 1.8 0.26, 1.96 0.2 C2.13 0.13, 2.3 0.08, 2.47 0.05 C2.64 0.02, 2.81 0, 2.98 0 C3.16 0, 3.33 0.02, 3.5 0.05 C3.67 0.08, 3.84 0.13, 4.01 0.2 C4.17 0.26, 4.33 0.34, 4.48 0.43 C4.63 0.53, 4.77 0.64, 4.9 0.76 C5.04 0.88, 5.16 1.01, 5.27 1.16 C5.38 1.3, 5.48 1.46, 5.57 1.62 C5.66 1.78, 5.73 1.96, 5.79 2.13 C5.85 2.31, 5.89 2.49, 5.92 2.68 C5.95 2.86, 5.96 3.15, 5.97 3.24 C5.98 3.33, 5.98 3.15, 5.97 3.24" stroke="none" stroke-width="0" fill="#fff"></path><path d="M5.97 3.24 C5.97 3.43, 5.95 3.62, 5.92 3.8 C5.89 3.99, 5.85 4.17, 5.79 4.35 C5.73 4.52, 5.66 4.7, 5.57 4.86 C5.48 5.02, 5.38 5.18, 5.27 5.32 C5.16 5.46, 5.04 5.6, 4.9 5.72 C4.77 5.84, 4.63 5.95, 4.48 6.04 C4.33 6.14, 4.17 6.22, 4.01 6.28 C3.84 6.35, 3.67 6.4, 3.5 6.43 C3.33 6.46, 3.16 6.48, 2.98 6.48 C2.81 6.48, 2.64 6.46, 2.47 6.43 C2.3 6.4, 2.13 6.35, 1.96 6.28 C1.8 6.22, 1.64 6.14, 1.49 6.04 C1.34 5.95, 1.2 5.84, 1.07 5.72 C0.93 5.6, 0.81 5.46, 0.7 5.32 C0.59 5.18, 0.49 5.02, 0.4 4.86 C0.31 4.7, 0.24 4.52, 0.18 4.35 C0.12 4.17, 0.08 3.99, 0.05 3.8 C0.02 3.62, 0 3.43, 0 3.24 C0 3.05, 0.02 2.86, 0.05 2.68 C0.08 2.49, 0.12 2.31, 0.18 2.13 C0.24 1.96, 0.31 1.78, 0.4 1.62 C0.49 1.46, 0.59 1.3, 0.7 1.16 C0.81 1.01, 0.93 0.88, 1.07 0.76 C1.2 0.64, 1.34 0.53, 1.49 0.43 C1.64 0.34, 1.8 0.26, 1.96 0.2 C2.13 0.13, 2.3 0.08, 2.47 0.05 C2.64 0.02, 2.81 0, 2.98 0 C3.16 0, 3.33 0.02, 3.5 0.05 C3.67 0.08, 3.84 0.13, 4.01 0.2 C4.17 0.26, 4.33 0.34, 4.48 0.43 C4.63 0.53, 4.77 0.64, 4.9 0.76 C5.04 0.88, 5.16 1.01, 5.27 1.16 C5.38 1.3, 5.48 1.46, 5.57 1.62 C5.66 1.78, 5.73 1.96, 5.79 2.13 C5.85 2.31, 5.89 2.49, 5.92 2.68 C5.95 2.86, 5.96 3.15, 5.97 3.24 C5.98 3.33, 5.98 3.15, 5.97 3.24" stroke="#087f5b" stroke-width="1" fill="none"></path></g><g transform="translate(575.0909090909093 251.52307747794185) rotate(0 15.86363636363626 5.827458256029644)"><text x="15.86363636363627" y="8.654916512059296" font-family="Helvetica, Segoe UI Emoji" font-size="10.359925788497156px" fill="#087f5b" text-anchor="middle" style="white-space: pre;" direction="ltr">H2 DB</text></g><g transform="translate(226.63636363636397 251.69561922191218) rotate(0 15.86363636363626 5.827458256029644)"><text x="15.86363636363627" y="8.654916512059296" font-family="Helvetica, Segoe UI Emoji" font-size="10.359925788497156px" fill="#087f5b" text-anchor="middle" style="white-space: pre;" direction="ltr">H2 DB</text></g><g stroke-linecap="round" transform="translate(525.9545454545454 388.3412592961238) rotate(0 8.181818181818187 8.181818181818187)"><path d="M16.36 8.18 C16.36 8.66, 16.32 9.14, 16.24 9.6 C16.16 10.07, 16.03 10.54, 15.87 10.98 C15.71 11.43, 15.5 11.86, 15.27 12.27 C15.03 12.68, 14.75 13.08, 14.45 13.44 C14.15 13.8, 13.8 14.15, 13.44 14.45 C13.08 14.75, 12.68 15.03, 12.27 15.27 C11.86 15.5, 11.43 15.71, 10.98 15.87 C10.54 16.03, 10.07 16.16, 9.6 16.24 C9.14 16.32, 8.66 16.36, 8.18 16.36 C7.71 16.36, 7.23 16.32, 6.76 16.24 C6.29 16.16, 5.83 16.03, 5.38 15.87 C4.94 15.71, 4.5 15.5, 4.09 15.27 C3.68 15.03, 3.29 14.75, 2.92 14.45 C2.56 14.15, 2.22 13.8, 1.91 13.44 C1.61 13.08, 1.33 12.68, 1.1 12.27 C0.86 11.86, 0.66 11.43, 0.49 10.98 C0.33 10.54, 0.21 10.07, 0.12 9.6 C0.04 9.14, 0 8.66, 0 8.18 C0 7.71, 0.04 7.23, 0.12 6.76 C0.21 6.29, 0.33 5.83, 0.49 5.38 C0.66 4.94, 0.86 4.5, 1.1 4.09 C1.33 3.68, 1.61 3.29, 1.91 2.92 C2.22 2.56, 2.56 2.22, 2.92 1.91 C3.29 1.61, 3.68 1.33, 4.09 1.1 C4.5 0.86, 4.94 0.66, 5.38 0.49 C5.83 0.33, 6.29 0.21, 6.76 0.12 C7.23 0.04, 7.71 0, 8.18 0 C8.66 0, 9.14 0.04, 9.6 0.12 C10.07 0.21, 10.54 0.33, 10.98 0.49 C11.43 0.66, 11.86 0.86, 12.27 1.1 C12.68 1.33, 13.08 1.61, 13.44 1.91 C13.8 2.22, 14.15 2.56, 14.45 2.92 C14.75 3.29, 15.03 3.68, 15.27 4.09 C15.5 4.5, 15.71 4.94, 15.87 5.38 C16.03 5.83, 16.16 6.29, 16.24 6.76 C16.32 7.23, 16.34 7.95, 16.36 8.18 C16.38 8.42, 16.38 7.95, 16.36 8.18" stroke="none" stroke-width="0" fill="#fa5252"></path><path d="M16.36 8.18 C16.36 8.66, 16.32 9.14, 16.24 9.6 C16.16 10.07, 16.03 10.54, 15.87 10.98 C15.71 11.43, 15.5 11.86, 15.27 12.27 C15.03 12.68, 14.75 13.08, 14.45 13.44 C14.15 13.8, 13.8 14.15, 13.44 14.45 C13.08 14.75, 12.68 15.03, 12.27 15.27 C11.86 15.5, 11.43 15.71, 10.98 15.87 C10.54 16.03, 10.07 16.16, 9.6 16.24 C9.14 16.32, 8.66 16.36, 8.18 16.36 C7.71 16.36, 7.23 16.32, 6.76 16.24 C6.29 16.16, 5.83 16.03, 5.38 15.87 C4.94 15.71, 4.5 15.5, 4.09 15.27 C3.68 15.03, 3.29 14.75, 2.92 14.45 C2.56 14.15, 2.22 13.8, 1.91 13.44 C1.61 13.08, 1.33 12.68, 1.1 12.27 C0.86 11.86, 0.66 11.43, 0.49 10.98 C0.33 10.54, 0.21 10.07, 0.12 9.6 C0.04 9.14, 0 8.66, 0 8.18 C0 7.71, 0.04 7.23, 0.12 6.76 C0.21 6.29, 0.33 5.83, 0.49 5.38 C0.66 4.94, 0.86 4.5, 1.1 4.09 C1.33 3.68, 1.61 3.29, 1.91 2.92 C2.22 2.56, 2.56 2.22, 2.92 1.91 C3.29 1.61, 3.68 1.33, 4.09 1.1 C4.5 0.86, 4.94 0.66, 5.38 0.49 C5.83 0.33, 6.29 0.21, 6.76 0.12 C7.23 0.04, 7.71 0, 8.18 0 C8.66 0, 9.14 0.04, 9.6 0.12 C10.07 0.21, 10.54 0.33, 10.98 0.49 C11.43 0.66, 11.86 0.86, 12.27 1.1 C12.68 1.33, 13.08 1.61, 13.44 1.91 C13.8 2.22, 14.15 2.56, 14.45 2.92 C14.75 3.29, 15.03 3.68, 15.27 4.09 C15.5 4.5, 15.71 4.94, 15.87 5.38 C16.03 5.83, 16.16 6.29, 16.24 6.76 C16.32 7.23, 16.34 7.95, 16.36 8.18 C16.38 8.42, 16.38 7.95, 16.36 8.18" stroke="#a61e4d" stroke-width="1" fill="none"></path></g><g stroke-linecap="round" transform="translate(388.68181818181813 388.3412592961239) rotate(0 8.181818181818187 8.181818181818187)"><path d="M16.36 8.18 C16.36 8.66, 16.32 9.14, 16.24 9.6 C16.16 10.07, 16.03 10.54, 15.87 10.98 C15.71 11.43, 15.5 11.86, 15.27 12.27 C15.03 12.68, 14.75 13.08, 14.45 13.44 C14.15 13.8, 13.8 14.15, 13.44 14.45 C13.08 14.75, 12.68 15.03, 12.27 15.27 C11.86 15.5, 11.43 15.71, 10.98 15.87 C10.54 16.03, 10.07 16.16, 9.6 16.24 C9.14 16.32, 8.66 16.36, 8.18 16.36 C7.71 16.36, 7.23 16.32, 6.76 16.24 C6.29 16.16, 5.83 16.03, 5.38 15.87 C4.94 15.71, 4.5 15.5, 4.09 15.27 C3.68 15.03, 3.29 14.75, 2.92 14.45 C2.56 14.15, 2.22 13.8, 1.91 13.44 C1.61 13.08, 1.33 12.68, 1.1 12.27 C0.86 11.86, 0.66 11.43, 0.49 10.98 C0.33 10.54, 0.21 10.07, 0.12 9.6 C0.04 9.14, 0 8.66, 0 8.18 C0 7.71, 0.04 7.23, 0.12 6.76 C0.21 6.29, 0.33 5.83, 0.49 5.38 C0.66 4.94, 0.86 4.5, 1.1 4.09 C1.33 3.68, 1.61 3.29, 1.91 2.92 C2.22 2.56, 2.56 2.22, 2.92 1.91 C3.29 1.61, 3.68 1.33, 4.09 1.1 C4.5 0.86, 4.94 0.66, 5.38 0.49 C5.83 0.33, 6.29 0.21, 6.76 0.12 C7.23 0.04, 7.71 0, 8.18 0 C8.66 0, 9.14 0.04, 9.6 0.12 C10.07 0.21, 10.54 0.33, 10.98 0.49 C11.43 0.66, 11.86 0.86, 12.27 1.1 C12.68 1.33, 13.08 1.61, 13.44 1.91 C13.8 2.22, 14.15 2.56, 14.45 2.92 C14.75 3.29, 15.03 3.68, 15.27 4.09 C15.5 4.5, 15.71 4.94, 15.87 5.38 C16.03 5.83, 16.16 6.29, 16.24 6.76 C16.32 7.23, 16.34 7.95, 16.36 8.18 C16.38 8.42, 16.38 7.95, 16.36 8.18" stroke="none" stroke-width="0" fill="#fa5252"></path><path d="M16.36 8.18 C16.36 8.66, 16.32 9.14, 16.24 9.6 C16.16 10.07, 16.03 10.54, 15.87 10.98 C15.71 11.43, 15.5 11.86, 15.27 12.27 C15.03 12.68, 14.75 13.08, 14.45 13.44 C14.15 13.8, 13.8 14.15, 13.44 14.45 C13.08 14.75, 12.68 15.03, 12.27 15.27 C11.86 15.5, 11.43 15.71, 10.98 15.87 C10.54 16.03, 10.07 16.16, 9.6 16.24 C9.14 16.32, 8.66 16.36, 8.18 16.36 C7.71 16.36, 7.23 16.32, 6.76 16.24 C6.29 16.16, 5.83 16.03, 5.38 15.87 C4.94 15.71, 4.5 15.5, 4.09 15.27 C3.68 15.03, 3.29 14.75, 2.92 14.45 C2.56 14.15, 2.22 13.8, 1.91 13.44 C1.61 13.08, 1.33 12.68, 1.1 12.27 C0.86 11.86, 0.66 11.43, 0.49 10.98 C0.33 10.54, 0.21 10.07, 0.12 9.6 C0.04 9.14, 0 8.66, 0 8.18 C0 7.71, 0.04 7.23, 0.12 6.76 C0.21 6.29, 0.33 5.83, 0.49 5.38 C0.66 4.94, 0.86 4.5, 1.1 4.09 C1.33 3.68, 1.61 3.29, 1.91 2.92 C2.22 2.56, 2.56 2.22, 2.92 1.91 C3.29 1.61, 3.68 1.33, 4.09 1.1 C4.5 0.86, 4.94 0.66, 5.38 0.49 C5.83 0.33, 6.29 0.21, 6.76 0.12 C7.23 0.04, 7.71 0, 8.18 0 C8.66 0, 9.14 0.04, 9.6 0.12 C10.07 0.21, 10.54 0.33, 10.98 0.49 C11.43 0.66, 11.86 0.86, 12.27 1.1 C12.68 1.33, 13.08 1.61, 13.44 1.91 C13.8 2.22, 14.15 2.56, 14.45 2.92 C14.75 3.29, 15.03 3.68, 15.27 4.09 C15.5 4.5, 15.71 4.94, 15.87 5.38 C16.03 5.83, 16.16 6.29, 16.24 6.76 C16.32 7.23, 16.34 7.95, 16.36 8.18 C16.38 8.42, 16.38 7.95, 16.36 8.18" stroke="#a61e4d" stroke-width="1" fill="none"></path></g><g stroke-linecap="round"><g transform="translate(499.7941201700037 174.82680924000715) rotate(180 -52.93048380636719 -41.940095398428724)"><path d="M0 0 C-38.5 -30.51, -77 -61.01, -105.86 -83.88 M0 0 C-23.72 -18.79, -47.44 -37.59, -105.86 -83.88" stroke="#2b8a3e" stroke-width="1" fill="none"></path></g><g transform="translate(499.7941201700037 174.82680924000715) rotate(180 -52.93048380636719 -41.940095398428724)"><path d="M-105.86 -83.88 L-91.27 -80.41 L-99.14 -70.47 L-105.86 -83.88" stroke="none" stroke-width="0" fill="#2b8a3e" fill-rule="evenodd"></path><path d="M-105.86 -83.88 C-100.55 -82.62, -95.25 -81.35, -91.27 -80.41 M-105.86 -83.88 C-102.59 -83.1, -99.32 -82.32, -91.27 -80.41 M-91.27 -80.41 C-93.97 -77, -96.67 -73.59, -99.14 -70.47 M-91.27 -80.41 C-94.36 -76.51, -97.44 -72.61, -99.14 -70.47 M-99.14 -70.47 C-100.76 -73.7, -102.38 -76.93, -105.86 -83.88 M-99.14 -70.47 C-101.26 -74.69, -103.37 -78.91, -105.86 -83.88 M-105.86 -83.88 C-105.86 -83.88, -105.86 -83.88, -105.86 -83.88 M-105.86 -83.88 C-105.86 -83.88, -105.86 -83.88, -105.86 -83.88" stroke="#2b8a3e" stroke-width="1" fill="none"></path></g></g><g stroke-linecap="round"><g transform="translate(143.76045910336137 175.0984141782784) rotate(180 48.55772271482036 -40.393518518518505)"><path d="M0 0 C22.95 -19.09, 45.89 -38.18, 97.12 -80.79 M0 0 C31.47 -26.18, 62.93 -52.35, 97.12 -80.79" stroke="#2b8a3e" stroke-width="1" fill="none"></path></g><g transform="translate(143.76045910336137 175.0984141782784) rotate(180 48.55772271482036 -40.393518518518505)"><path d="M97.12 -80.79 L90.72 -67.22 L82.61 -76.97 L97.12 -80.79" stroke="none" stroke-width="0" fill="#2b8a3e" fill-rule="evenodd"></path><path d="M97.12 -80.79 C95.6 -77.58, 94.09 -74.38, 90.72 -67.22 M97.12 -80.79 C95.04 -76.39, 92.97 -71.99, 90.72 -67.22 M90.72 -67.22 C89.03 -69.25, 87.33 -71.29, 82.61 -76.97 M90.72 -67.22 C88.02 -70.46, 85.32 -73.71, 82.61 -76.97 M82.61 -76.97 C85.53 -77.73, 88.45 -78.5, 97.12 -80.79 M82.61 -76.97 C88.12 -78.42, 93.63 -79.87, 97.12 -80.79 M97.12 -80.79 C97.12 -80.79, 97.12 -80.79, 97.12 -80.79 M97.12 -80.79 C97.12 -80.79, 97.12 -80.79, 97.12 -80.79" stroke="#2b8a3e" stroke-width="1" fill="none"></path></g></g></svg>